<svg width="77" height="82" viewBox="0 0 77 82" fill="none" xmlns="http://www.w3.org/2000/svg">
<path d="M69.3942 0.154948C74.782 1.62345 76.4571 5.02484 76.4107 10.0038C76.2661 25.4997 76.3613 40.9977 76.3595 56.4949C76.3583 66.96 75.4396 68.0792 65.3512 69.9496C63.4234 80.1594 62.0416 81.2974 51.541 81.2992C38.0435 81.3016 24.5459 81.3207 11.0483 81.2922C2.39098 81.2738 0.0158828 78.9232 0.00836777 70.4385C-0.00550223 54.7747 0.00105064 39.1108 0.00552964 23.4469C0.00814664 14.3136 1.66456 12.489 11.1158 11.5302C11.2662 10.7152 11.477 9.80284 11.5983 8.87873C12.4088 2.70156 15.1943 0.0400796 21.483 0.0175726C37.3121 -0.0390674 53.1418 0.0504095 69.3942 0.154948ZM5.14444 65.4076C5.14444 66.4055 5.1439 67.4033 5.14452 68.4012C5.14929 75.9785 5.14936 75.9821 12.5799 75.9835C26.3833 75.9861 40.1874 75.9088 53.9896 76.0322C57.8499 76.0667 59.3149 74.5864 59.2865 70.7259C59.1688 54.7614 59.1295 38.7943 59.3067 22.8309C59.3566 18.3388 57.4324 17.0821 53.3035 17.1205C39.1687 17.2519 25.0311 17.2578 10.8964 17.1191C6.60901 17.0771 5.0159 18.6811 5.07494 23.0187C5.26277 36.8195 5.14446 50.6245 5.14444 65.4076ZM45.6359 5.15223C37.9842 5.1524 30.3322 5.10327 22.6811 5.17007C17.5893 5.21453 16.8629 6.19229 17.6396 11.8334C29.0429 11.8334 40.4983 11.83 51.9538 11.8344C62.4816 11.8385 64.8213 14.1818 64.8281 24.7518C64.8363 37.6885 64.83 50.6252 64.83 63.759C69.0024 64.368 71.2637 63.5004 71.2399 59.0595C71.1524 42.7587 71.1544 26.4568 71.244 10.156C71.2643 6.45948 69.5843 5.0948 66.0974 5.13293C59.6109 5.20385 53.1231 5.15261 45.6359 5.15223Z" fill="#9B0A28"/>
<path d="M5.14444 64.9178C5.14446 50.6245 5.26277 36.8195 5.07494 23.0187C5.0159 18.6811 6.60901 17.0771 10.8964 17.1192C25.0311 17.2578 39.1687 17.252 53.3034 17.1205C57.4324 17.0821 59.3566 18.3389 59.3067 22.8309C59.1295 38.7943 59.1688 54.7614 59.2864 70.7259C59.3149 74.5864 57.8499 76.0667 53.9896 76.0322C40.1874 75.9088 26.3833 75.9861 12.5799 75.9835C5.14936 75.9821 5.14929 75.9785 5.14452 68.4012C5.14389 67.4034 5.14444 66.4055 5.14444 64.9178ZM31.761 29.932C30.9714 31.5563 29.7173 33.1201 29.4961 34.8185C29.1195 37.7101 29.3924 40.6863 29.3924 43.975C25.5472 43.975 22.2184 43.7339 18.956 44.0945C17.6631 44.2374 16.5178 45.7163 15.3053 46.5869C16.5062 47.4514 17.6434 48.9285 18.9204 49.0615C22.2916 49.4124 25.7235 49.1803 29.3977 49.1803C29.3977 53.1378 29.1098 56.3317 29.5284 59.4301C29.7164 60.8214 31.3175 62.0217 32.2773 63.3087C33.1998 61.985 34.7436 60.7382 34.919 59.322C35.3179 56.1004 35.0448 52.7956 35.0448 49.1884C38.8182 49.1884 41.989 49.4617 45.0744 49.0668C46.5003 48.8842 47.7593 47.3973 49.094 46.5018C47.6919 45.6577 46.3546 44.2561 44.8744 44.0841C41.6717 43.7118 38.3958 43.9694 35.0479 43.9694C35.0479 40.3836 35.3334 37.5124 34.9417 34.7368C34.7037 33.0505 33.4198 31.5118 31.761 29.932Z" fill="#FEFDFD"/>
<path d="M46.1358 5.15225C53.1231 5.15263 59.6109 5.20387 66.0973 5.13295C69.5843 5.09481 71.2643 6.4595 71.2439 10.156C71.1544 26.4568 71.1524 42.7587 71.2398 59.0595C71.2637 63.5004 69.0024 64.368 64.83 63.759C64.83 50.6253 64.8363 37.6885 64.828 24.7518C64.8213 14.1818 62.4816 11.8385 51.9538 11.8345C40.4983 11.8301 29.0428 11.8335 17.6396 11.8335C16.8629 6.1923 17.5892 5.21455 22.6811 5.17009C30.3322 5.10328 37.9842 5.15242 46.1358 5.15225Z" fill="#FBF6F7"/>
<path d="M32.1834 29.9194C33.4198 31.5118 34.7037 33.0505 34.9417 34.7368C35.3333 37.5124 35.0479 40.3836 35.0479 43.9694C38.3958 43.9694 41.6717 43.7118 44.8744 44.084C46.3546 44.2561 47.6919 45.6577 49.0939 46.5018C47.7593 47.3973 46.5003 48.8842 45.0743 49.0668C41.989 49.4617 38.8182 49.1884 35.0447 49.1884C35.0447 52.7956 35.3179 56.1004 34.919 59.322C34.7436 60.7382 33.1998 61.985 32.2773 63.3086C31.3175 62.0217 29.7163 60.8214 29.5284 59.4301C29.1098 56.3317 29.3977 53.1378 29.3977 49.1803C25.7235 49.1803 22.2916 49.4124 18.9204 49.0615C17.6433 48.9285 16.5062 47.4514 15.3053 46.5869C16.5178 45.7163 17.6631 44.2374 18.956 44.0945C22.2184 43.7339 25.5472 43.975 29.3923 43.975C29.3923 40.6863 29.1195 37.7101 29.4961 34.8185C29.7173 33.1201 30.9714 31.5563 32.1834 29.9194Z" fill="#9E132F"/>
</svg>
