<svg width="71" height="72" viewBox="0 0 71 72" fill="none" xmlns="http://www.w3.org/2000/svg">
<path d="M69.5622 23.8014C76.3234 47.8894 54.9253 69.1414 29.7832 65.6451C27.1955 65.2853 24.3073 66.0166 21.7446 66.8288C18.8285 67.7529 16.1214 69.3366 11.7465 71.3645C15.2115 61.0893 8.97479 55.6569 4.73218 49.0609C-7.83839 29.5172 6.04375 2.89558 29.7874 0.307083C48.6557 -1.74992 62.945 6.57661 69.5622 23.8014ZM35.9462 28.6162C34.6591 27.3861 33.372 26.156 32.8166 25.6251C27.2776 31.1125 21.9997 36.3413 16.2984 41.9895C21.0934 39.601 25.5556 37.3782 30.6665 34.8324C33.4084 38.1096 36.072 41.2932 38.9471 44.7295C45.0319 38.0244 50.5502 31.9435 56.0685 25.8626C55.8115 25.6057 55.5545 25.3488 55.2976 25.0918C50.5402 27.9403 45.7829 30.7889 40.5637 33.9139C39.0472 32.1496 37.7523 30.6431 35.9462 28.6162Z" fill="#990725"/>
<path d="M36.2018 28.8765C37.7523 30.6431 39.0472 32.1496 40.5637 33.9139C45.7829 30.7889 50.5402 27.9403 55.2976 25.0918C55.5545 25.3488 55.8115 25.6057 56.0685 25.8625C50.5502 31.9435 45.0319 38.0244 38.9471 44.7295C36.072 41.2932 33.4084 38.1096 30.6665 34.8323C25.5556 37.3782 21.0934 39.601 16.2984 41.9894C21.9997 36.3412 27.2776 31.1125 32.8166 25.6251C33.372 26.1559 34.6591 27.386 36.2018 28.8765Z" fill="#FBF6F7"/>
</svg>
