<svg width="251" height="275" viewBox="0 0 251 275" fill="none" xmlns="http://www.w3.org/2000/svg">
<path d="M148.532 0C148.929 3.82318 148.865 7.6465 148.785 11.4695C148.631 18.8377 145.258 21.9722 137.814 21.7325C135.833 21.6687 133.848 21.7229 132.692 21.7229C130.915 26.1502 129.709 30.3358 127.532 33.9338C126.776 35.1832 123.593 35.4404 121.556 35.3467C116.023 35.0921 114.762 32.8136 113.547 21.5903C105.714 21.5903 97.7932 21.704 89.8769 21.5551C83.288 21.4312 80.2411 18.414 80.3768 12.617C80.5025 7.24618 83.5832 4.50002 90.1229 4.44015C102.44 4.32737 114.76 4.3839 127.078 4.42395C129.578 4.43208 131.96 4.53688 131.159 0.443601C136.688 0 142.376 0 148.532 0Z" fill="#D75131"/>
<path d="M50.532 0C51 8.4457 51 16.8914 51 25.9954C56.3867 25.9954 61.8271 25.9729 67.2671 26.001C74.4613 26.038 77.8013 28.6835 77.8941 34.3582C77.9881 40.1147 74.4082 42.9786 67.0189 42.9998C59.367 43.0217 51.715 43.0239 44.0631 42.9994C35.7528 42.9729 32.9324 40.0818 33.1038 31.8726C33.1416 30.0653 33.1094 28.2565 33.1094 25.9782C26.5669 25.45 19.1447 25.7772 19.3136 16.4119C19.4153 10.7772 22.5064 9.00205 33.1461 8.00968C33.1461 5.70192 33.1461 3.30193 33.073 0.450967C38.688 -5.96046e-08 44.3761 0 50.532 0Z" fill="#ED9434"/>
<path d="M0 58.4687C4.4706 58 8.9412 58 14.1821 58C14.1821 51.9174 14.0686 45.9973 14.213 40.0835C14.368 33.7322 18.2949 30.222 24.1356 31.0832C28.2126 31.6844 31.0933 33.9715 31.1966 38.2203C31.4389 48.1877 31.6298 58.1765 31.2223 68.1312C31.0077 73.3729 27.2934 75.7542 21.3745 75.7909C19.0899 75.805 16.805 75.7932 14.5937 75.7932C12.3394 89.153 9.78193 91.3813 0.338749 88.1127C5.96046e-08 78.3125 0 68.6249 0 58.4687Z" fill="#ED9434"/>
<path d="M250.531 0C250.305 5.95673 248.077 8.0865 241.948 8.13075C229.805 8.21842 217.661 8.15849 205.517 8.15952C203.888 8.15966 202.259 8.15954 200.02 8.15954C200.02 14.3148 200.061 20.0772 200.009 25.8386C199.949 32.3507 197.022 35.491 191.23 35.3919C185.708 35.2976 182.979 32.2371 182.939 25.8883C182.888 17.571 182.933 9.25312 182.968 0.467758C205.354 5.96046e-08 227.708 0 250.531 0Z" fill="#D64B29"/>
<path d="M0 161.469C9.80532 157.853 14.1433 160.993 14.1604 171.264C14.1714 177.904 14.1629 184.544 14.1623 191.184C14.1614 202.678 12.3609 204.435 0.442198 204.071C2.98023e-08 189.979 0 175.958 0 161.469Z" fill="#980522"/>
<path d="M11.3274 223.178C4.53612 222.358 1.75466 219.481 2.04989 214.056C2.3434 208.662 5.49033 206.047 11.9572 206.002C19.9564 205.946 27.9564 205.97 35.9559 205.993C44.1507 206.017 47.1327 209.126 46.8411 217.219C46.7758 219.03 46.8315 220.845 46.8315 223.255C53.6403 223.379 61.0372 223.335 60.5684 233.057C60.2948 238.732 57.1918 240.423 46.7181 241.109C46.7181 248.979 46.8053 256.913 46.691 264.844C46.5969 271.369 44.0153 274.107 38.2891 274.172C32.1135 274.242 29.4697 271.633 29.4044 264.861C29.2901 253.03 29.3719 241.196 29.3716 229.363C29.3715 227.545 29.3716 225.727 29.3716 223.181C23.3068 223.181 17.5462 223.181 11.3274 223.178Z" fill="#9B0B28"/>
<path d="M69.4053 161.151C79.1832 157.805 82.3666 160.665 83.3833 173.827C91.5741 173.827 99.8376 173.693 108.095 173.868C115.104 174.016 118.879 180.223 115.872 186.38C113.975 190.264 110.378 190.84 106.58 190.844C94.766 190.858 82.9516 190.85 71.1372 190.85C69.5106 190.85 67.8839 190.85 65.7203 190.85C65.7203 196.682 65.7454 202.117 65.7142 207.553C65.6714 215.005 62.9959 218.207 56.9187 218.159C51.092 218.113 48.4386 214.94 48.3983 207.808C48.3541 199.987 48.3542 192.166 48.399 184.345C48.4453 176.258 51.1929 173.633 59.2706 173.785C61.2512 173.823 63.2332 173.791 64.5284 173.791C66.1346 169.373 67.5933 165.362 69.4053 161.151Z" fill="#9A0A27"/>
<path d="M19.5084 83.6704C20.8345 78.8969 24.0967 77.2265 28.2711 77.1759C37.1005 77.0688 45.935 77.005 54.7619 77.1891C61.0517 77.3203 63.9516 80.6397 63.9949 87.0998C64.0104 89.422 63.9974 91.7444 63.9974 94.7264C70.8663 94.6788 78.3094 94.4881 77.8014 104.339C77.5143 109.905 74.7106 111.4 63.9206 112.354C63.9206 120.374 64.0233 128.475 63.888 136.572C63.7803 143.018 60.0216 146.271 53.9954 145.474C48.9437 144.806 46.8394 142.318 46.8038 136.5C46.7306 124.504 46.78 112.507 46.7789 100.511C46.7788 98.7282 46.7789 96.9456 46.7789 94.6158C40.3555 94.6158 34.5507 94.793 28.7612 94.5705C21.6533 94.2974 19.2358 91.4193 19.5084 83.6704Z" fill="#ED9435"/>
<path d="M136.834 34.2144C136.45 26.5354 138.919 23.6283 146.109 23.4728C154.259 23.2964 162.416 23.362 170.569 23.4439C178.444 23.523 181 26.1701 181.023 33.9774C181.029 36.1175 181.024 38.2577 181.024 39.5506C185.47 41.1394 189.586 42.1268 193.129 44.1279C194.444 44.8702 194.915 47.9938 194.903 50.0264C194.87 55.7718 192.032 57.463 181.019 58.5604C181.019 66.5687 181.108 74.6614 180.992 82.7511C180.896 89.3743 177.105 92.4263 170.581 91.4067C166.024 90.6945 163.96 88.0484 163.933 82.4752C163.874 70.3283 163.914 58.181 163.913 46.0338C163.913 44.4092 163.913 42.7846 163.913 40.5707C157.819 40.5707 152.213 40.6207 146.609 40.5547C142.223 40.503 138.238 39.6603 136.834 34.2144Z" fill="#D74E2D"/>
<path d="M14.7465 154.234C5.55726 154.119 2.17216 151.851 2.04408 145.979C1.90839 139.757 5.32725 137.446 16.0418 136.989C16.0418 128.807 15.959 120.571 16.0698 112.337C16.1489 106.456 18.9642 103.818 24.7317 103.841C30.4593 103.862 33.0905 106.438 33.1412 112.55C33.2405 124.541 33.1734 136.534 33.1752 148.526C33.1754 150.349 33.1752 152.172 33.1752 154.837C39.6158 154.837 45.8673 154.687 52.1083 154.877C58.8151 155.082 62.3034 160.476 59.9784 166.654C58.6209 170.261 55.7735 171.752 52.1873 171.79C43.0278 171.888 33.8631 171.98 24.7075 171.769C18.8897 171.635 16.1858 168.411 15.9696 162.48C15.8698 159.742 15.4643 157.014 14.7465 154.234Z" fill="#990725"/>
<path d="M70.7292 88.8135C68.8184 85.9721 66.1916 83.3304 66.0054 80.5264C65.4331 71.9139 65.7448 63.2388 65.811 54.5888C65.8641 47.6507 68.5449 45.0722 75.5523 45.0022C77.857 44.9792 80.1621 44.9986 81.5899 44.9986C83.2497 40.5043 84.2785 36.3986 86.3174 32.8777C87.0824 31.5567 90.1948 31.1072 92.237 31.107C97.8942 31.1065 99.325 33.551 100.711 44.9994C108.53 44.9994 116.45 44.9904 124.37 45.0032C128.234 45.0095 131.621 45.8462 133.303 49.9202C135.926 56.2715 132.102 61.8865 124.774 61.9638C112.465 62.0937 100.154 62.0008 87.8435 62.0016C86.3805 62.0017 84.9175 62.0016 82.9178 62.0016C82.9178 67.8765 82.9342 73.314 82.9141 78.7514C82.8825 87.3228 79.7552 90.0164 70.7292 88.8135Z" fill="#ED9333"/>
</svg>
