<svg width="97" height="71" viewBox="0 0 97 71" fill="none" xmlns="http://www.w3.org/2000/svg">
<path d="M70.0686 70.2252C46.599 70.2252 23.6293 70.2252 0.00992207 70.2252C0.00992207 65.2088 0.00984558 60.4459 0.00995258 55.6831C0.0101656 46.5201 -0.0193146 37.357 0.0222054 28.1941C0.0460234 22.9347 2.23301 20.4535 7.46718 20.3255C15.227 20.1358 22.995 20.2764 31.0492 20.2764C31.0492 16.1947 30.9559 11.7079 31.0744 7.22671C31.2029 2.37008 33.5829 0.124476 38.6483 0.0585584C44.978 -0.0237786 51.3102 -0.0129745 57.6403 0.0517835C63.1428 0.108119 65.4094 2.32583 65.5541 7.99325C65.7494 15.6433 65.7553 23.2981 65.8564 30.9508C65.8582 31.0894 66.0329 31.2259 66.062 31.2683C73.5558 31.2683 80.9844 31.2268 88.4122 31.2856C92.1538 31.3153 96.0618 32.2492 96.2144 36.5791C96.605 47.6694 96.3447 58.7826 96.3447 70.2252C87.5299 70.2252 79.0493 70.2252 70.0686 70.2252ZM34.245 23.6321C34.245 35.3811 34.245 47.1301 34.245 58.7464C43.9757 58.7464 53.0348 58.7464 62.212 58.7464C62.212 41.7381 62.1604 25.0948 62.2509 8.45236C62.2717 4.6398 60.7936 2.9949 56.9202 3.10665C51.2655 3.26968 45.5978 3.29153 39.9448 3.10025C35.8939 2.96316 34.1083 4.59402 34.2156 8.65219C34.3388 13.3096 34.2448 17.9728 34.245 23.6321ZM3.09414 28.0319C3.09414 38.2946 3.09414 48.5573 3.09414 58.7971C12.7078 58.7971 21.7644 58.7971 31.0439 58.7971C31.0439 48.5157 31.0051 38.5439 31.0656 28.5727C31.0858 25.2312 29.5908 23.6707 26.2653 23.6897C20.1042 23.7247 13.9281 23.4697 7.79117 23.8571C6.17359 23.9593 4.67653 25.9702 3.09414 28.0319ZM67.7418 35.0499C67.0719 35.9358 65.8415 36.8089 65.8211 37.7094C65.6608 44.7785 65.7322 51.8529 65.7322 58.9134C75.2298 58.9134 84.1733 58.9134 93.5447 58.9134C93.5447 52.0823 93.5905 45.4547 93.5249 38.8282C93.4931 35.612 91.4468 34.5914 88.5394 34.6293C81.8832 34.7163 75.2265 34.7639 67.7418 35.0499ZM91.047 67.1399C95.5233 66.9177 93.2035 64.3758 92.9856 62.5819C83.7628 62.5819 74.8756 62.5819 65.5878 62.5819C65.6737 64.2652 65.7432 65.6266 65.8205 67.1411C74.2355 67.1411 82.1885 67.1411 91.047 67.1399ZM3.18859 66.5575C12.4088 66.5575 21.629 66.5575 31.1376 66.5575C30.9874 65.2086 30.8344 63.8348 30.6629 62.2943C22.1362 62.2943 13.9962 62.3888 5.86048 62.2415C3.12389 62.1919 2.8763 63.586 3.18859 66.5575ZM60.3035 67.126C61.101 65.8295 61.8986 64.533 63.0933 62.591C52.6374 62.591 43.6049 62.591 34.202 62.591C34.3326 64.271 34.4377 65.6237 34.5336 66.859C35.3232 66.9998 35.6457 67.1069 35.9684 67.1075C43.7614 67.1227 51.5543 67.1265 60.3035 67.126Z" fill="#9D102D"/>
<path d="M34.245 23.1328C34.2448 17.9728 34.3388 13.3096 34.2156 8.65216C34.1083 4.59399 35.8939 2.96313 39.9448 3.10022C45.5978 3.2915 51.2655 3.26965 56.9202 3.10663C60.7936 2.99487 62.2717 4.63977 62.251 8.45233C62.1604 25.0948 62.212 41.738 62.212 58.7464C53.0348 58.7464 43.9757 58.7464 34.245 58.7464C34.245 47.1301 34.245 35.3811 34.245 23.1328ZM47.8154 7.15424C46.2095 8.3465 44.6036 9.53882 42.9977 10.7311C44.1878 11.5023 45.3779 12.2735 46.5215 13.0145C46.7215 15.2184 46.9188 17.3919 47.1535 19.9789C50.5917 17.5391 50.9902 11.4448 47.8154 7.15424Z" fill="#FEFCFC"/>
<path d="M3.10913 27.5683C4.67653 25.9702 6.17358 23.9592 7.79117 23.857C13.9281 23.4697 20.1042 23.7247 26.2653 23.6896C29.5908 23.6707 31.0858 25.2311 31.0656 28.5727C31.0051 38.5439 31.0439 48.5157 31.0439 58.797C21.7644 58.797 12.7078 58.797 3.09413 58.797C3.09413 48.5572 3.09413 38.2945 3.10913 27.5683ZM20.9478 34.1915C20.9785 33.028 21.0563 31.8635 21.0314 30.7012C20.9359 26.2509 17.4965 27.5588 15.1442 27.5731C13.7669 27.5815 12.3959 28.641 11.0221 29.2278C12.8021 29.901 14.5869 30.5621 16.3548 31.2657C16.5357 31.3378 16.6152 31.6648 16.2341 31.0365C14.342 32.602 12.0461 33.7383 11.0956 35.5721C10.5184 36.6857 11.7733 40.1788 12.6337 40.3418C15.2958 40.8465 18.1634 40.2674 20.9512 40.1091C20.9375 39.4123 20.9239 38.7156 20.9102 38.0188C18.7845 37.5872 16.6589 37.1557 14.3692 36.6908C16.5971 36.0754 18.6041 35.521 20.9478 34.1915Z" fill="#FFFEFE"/>
<path d="M68.1559 34.9387C75.2265 34.7639 81.8832 34.7162 88.5394 34.6292C91.4468 34.5913 93.4931 35.6119 93.5249 38.8282C93.5905 45.4547 93.5447 52.0822 93.5447 58.9134C84.1732 58.9134 75.2298 58.9134 65.7322 58.9134C65.7322 51.8528 65.6608 44.7784 65.8211 37.7093C65.8415 36.8088 67.0719 35.9357 68.1559 34.9387ZM76.7853 40.9786C78.3169 41.1388 79.8486 41.299 82.5376 41.5804C79.5503 42.4559 77.7056 42.9967 75.8607 43.5374C75.8823 43.999 75.9039 44.4605 75.9255 44.9222C77.7945 45.3817 79.6635 45.8412 81.9389 46.4006C79.5671 47.2588 77.6803 47.9415 74.8758 48.9562C82.8245 52.4065 85.0434 51.1727 85.0471 44.5406C85.0477 43.546 85.2972 42.4619 84.9831 41.5785C84.5506 40.362 83.5498 38.2726 83.0387 38.3431C80.7051 38.6651 77.292 36.0376 76.7853 40.9786Z" fill="#FBF5F6"/>
<path d="M90.5942 67.1405C82.1885 67.1411 74.2355 67.1411 65.8205 67.1411C65.7432 65.6266 65.6737 64.2651 65.5878 62.5818C74.8756 62.5818 83.7628 62.5818 92.9856 62.5818C93.2035 64.3757 95.5233 66.9177 90.5942 67.1405Z" fill="#F8EDEF"/>
<path d="M3.13462 66.0989C2.87629 63.5859 3.12388 62.1919 5.86047 62.2415C13.9961 62.3887 22.1362 62.2942 30.6629 62.2942C30.8344 63.8348 30.9874 65.2086 31.1376 66.5575C21.629 66.5575 12.4088 66.5575 3.13462 66.0989Z" fill="#F9F1F3"/>
<path d="M59.8253 67.1291C51.5543 67.1265 43.7614 67.1227 35.9684 67.1075C35.6457 67.1069 35.3232 66.9998 34.5336 66.859C34.4377 65.6237 34.3325 64.271 34.202 62.591C43.6049 62.591 52.6374 62.591 63.0933 62.591C61.8986 64.533 61.101 65.8295 59.8253 67.1291Z" fill="#F9F1F3"/>
<path d="M48.232 7.17157C50.9902 11.4448 50.5917 17.5391 47.1535 19.9789C46.9188 17.3919 46.7215 15.2184 46.5215 13.0145C45.3779 12.2735 44.1878 11.5023 42.9977 10.7311C44.6036 9.53882 46.2095 8.3465 48.232 7.17157Z" fill="#A01833"/>
<path d="M20.7795 34.5791C18.6041 35.5211 16.5971 36.0754 14.3693 36.6908C16.6589 37.1557 18.7846 37.5872 20.9102 38.0188C20.9239 38.7156 20.9375 39.4123 20.9512 40.1091C18.1634 40.2674 15.2958 40.8465 12.6337 40.3419C11.7733 40.1788 10.5184 36.6857 11.0956 35.5721C12.0461 33.7383 14.342 32.602 16.2341 31.0365C16.6152 31.6648 16.5357 31.3378 16.3548 31.2657C14.5869 30.5621 12.8021 29.901 11.0221 29.2278C12.3959 28.6411 13.7669 27.5815 15.1442 27.5731C17.4965 27.5588 20.9359 26.2509 21.0314 30.7012C21.0563 31.8635 20.9785 33.028 20.7795 34.5791Z" fill="#A62B44"/>
<path d="M76.4915 40.6846C77.2921 36.0376 80.7051 38.6652 83.0388 38.3431C83.5498 38.2726 84.5506 40.3621 84.9831 41.5785C85.2972 42.4619 85.0477 43.546 85.0471 44.5406C85.0434 51.1727 82.8246 52.4065 74.8758 48.9562C77.6803 47.9415 79.5671 47.2588 81.9389 46.4006C79.6635 45.8412 77.7945 45.3817 75.9255 44.9222C75.9039 44.4606 75.8823 43.999 75.8607 43.5374C77.7056 42.9967 79.5504 42.4559 82.5376 41.5804C79.8486 41.2991 78.3169 41.1388 76.4915 40.6846Z" fill="#9F1C37"/>
</svg>
