<svg width="88" height="88" viewBox="0 0 88 88" fill="none" xmlns="http://www.w3.org/2000/svg">
<path d="M0.011265 70.2032C0.011307 49.3991 0.00351038 29.0922 0.0156824 8.78529C0.0198784 1.78636 1.77739 0.0250637 8.89246 0.0180757C32.3619 -0.00493425 55.8314 -0.00771171 79.3009 0.0198763C85.8862 0.0275973 87.9505 2.03721 87.9638 8.63969C88.0113 32.2755 88.0135 55.9116 87.9605 79.5474C87.9474 85.4078 85.9303 87.4024 80.2075 87.41C56.0723 87.442 31.9369 87.4394 7.8017 87.4117C1.91628 87.4049 0.0888182 85.5399 0.0180322 79.6885C-0.0182108 76.6929 0.01141 73.6964 0.011265 70.2032ZM84.4064 27.7795C85.1244 23.8442 82.5692 24.0647 79.908 24.0694C55.9111 24.1121 31.9142 24.0897 7.91724 24.106C6.47947 24.107 5.0418 24.2758 3.39217 24.3799C3.39217 42.9377 3.42869 61.0947 3.36548 79.2515C3.35042 83.5777 5.66068 84.4098 9.44178 84.3921C32.4383 84.2841 55.4366 84.2295 78.4319 84.4278C83.16 84.4686 84.5012 82.6568 84.4632 78.2602C84.3203 61.7635 84.4067 45.2649 84.4064 27.7795ZM73.5318 20.3384C77.1012 20.3384 80.6705 20.3384 84.3801 20.3384C84.3801 15.5545 84.3872 11.5677 84.3776 7.581C84.3709 4.78446 83.1028 3.24388 80.1582 3.24552C56.0461 3.25886 31.934 3.26029 7.82198 3.24311C4.93497 3.24107 3.48185 4.68849 3.43114 7.47407C3.35612 11.5954 3.41174 15.7191 3.41174 20.3384C26.7074 20.3384 49.6204 20.3384 73.5318 20.3384Z" fill="#A01833"/>
<path d="M84.4068 28.2733C84.4067 45.2649 84.3203 61.7635 84.4631 78.2602C84.5012 82.6568 83.1599 84.4686 78.4319 84.4278C55.4365 84.2295 32.4383 84.2841 9.44176 84.3921C5.66066 84.4098 3.3504 83.5777 3.36546 79.2515C3.42867 61.0947 3.39215 42.9377 3.39215 24.3799C5.04178 24.2758 6.47945 24.107 7.91723 24.106C31.9141 24.0897 55.9111 24.1121 79.9079 24.0694C82.5692 24.0647 85.1244 23.8442 84.4068 28.2733ZM27.7455 37.3925C20.7861 41.7459 28.9714 44.8049 29.2633 48.765C26.1668 48.9821 23.6142 49.1611 21.1935 49.3308C21.1935 52.9912 21.1935 56.0469 21.1935 59.1528C24.0538 59.3508 26.4619 59.5175 29.7807 59.7472C28.2628 63.7174 22.1306 65.6355 27.367 71.1794C33.0429 77.1886 34.572 68.0136 38.5682 69.4274C38.768 72.0415 38.9529 74.461 39.148 77.0126C42.5584 77.0126 45.6136 77.0126 48.8488 77.0126C49.0661 74.1544 49.2558 71.6586 49.5254 68.113C52.5779 70.5205 54.6799 72.1782 57.2114 74.1747C59.3467 71.6552 62.4352 69.583 62.7662 67.1376C63.0461 65.0698 60.1318 62.5697 58.2687 59.7031C61.8036 59.4417 64.3489 59.2536 66.8953 59.0653C66.8953 55.5448 66.8953 52.6106 66.8953 49.4086C64.1067 49.1566 61.5708 48.9273 58.8591 48.6822C58.4103 44.7115 66.05 43.653 61.1777 38.0278C55.8342 31.8586 53.4925 38.7117 49.5044 39.6375C49.2185 36.516 48.987 33.9888 48.7544 31.4504C45.2737 31.4504 42.2138 31.4504 39.0883 31.4504C38.8793 34.2545 38.7003 36.6552 38.4257 40.3391C36.3687 38.6906 35.0364 37.8885 34.0514 36.7783C32.0158 34.484 30.1811 34.5118 27.7455 37.3925Z" fill="#FDFBFB"/>
<path d="M73.0326 20.3384C49.6204 20.3384 26.7074 20.3384 3.41175 20.3384C3.41175 15.7191 3.35612 11.5954 3.43115 7.47406C3.48185 4.68848 4.93498 3.24106 7.82198 3.24311C31.934 3.26029 56.0461 3.25885 80.1582 3.24552C83.1028 3.24387 84.3709 4.78446 84.3776 7.581C84.3873 11.5677 84.3801 15.5545 84.3801 20.3384C80.6705 20.3384 77.1012 20.3384 73.0326 20.3384ZM76.1233 13.836C77.8102 13.4727 79.4971 13.1093 81.1839 12.746C81.1634 12.1758 81.1428 11.6055 81.1223 11.0352C79.8361 10.7455 78.5526 10.2194 77.2634 10.2051C69.9905 10.1241 62.7146 10.0885 55.4442 10.2443C54.2683 10.2696 53.1147 11.3316 51.9508 11.9143C53.0901 12.5522 54.2153 13.7105 55.3712 13.7419C61.9789 13.9217 68.5939 13.8333 76.1233 13.836ZM43.6144 15.3058C45.4993 12.549 45.5001 9.61835 42.6134 8.00009C41.015 7.10407 37.7686 7.13742 36.5065 8.21112C35.2175 9.3078 34.5156 12.584 35.2028 14.2107C36.734 17.8354 39.9059 17.838 43.6144 15.3058ZM29.6041 8.33142C25.2169 5.96842 21.485 6.79282 21.0516 10.5696C20.8456 12.3646 21.722 15.1212 23.0626 16.0224C24.4209 16.9355 28.0611 16.8496 28.7353 15.8606C29.9495 14.0794 29.696 11.2975 29.6041 8.33142ZM16.9248 10.2724C14.9673 9.13263 12.5527 6.68939 11.1655 7.17584C9.3442 7.81455 7.31237 10.76 7.30939 12.7164C7.30718 14.1666 10.2956 16.6771 12.1258 16.8476C15.5864 17.1699 17.4152 14.703 16.9248 10.2724Z" fill="#FDFBFB"/>
<path d="M28.0152 37.1184C30.1811 34.5118 32.0158 34.484 34.0514 36.7783C35.0364 37.8885 36.3687 38.6906 38.4258 40.3391C38.7003 36.6552 38.8793 34.2545 39.0883 31.4504C42.2138 31.4504 45.2737 31.4504 48.7544 31.4504C48.987 33.9888 49.2185 36.516 49.5044 39.6375C53.4925 38.7117 55.8342 31.8586 61.1777 38.0278C66.05 43.653 58.4103 44.7115 58.8591 48.6822C61.5708 48.9273 64.1067 49.1566 66.8953 49.4086C66.8953 52.6106 66.8953 55.5448 66.8953 59.0653C64.3489 59.2536 61.8036 59.4417 58.2687 59.7031C60.1319 62.5697 63.0461 65.0698 62.7662 67.1376C62.4352 69.583 59.3467 71.6552 57.2114 74.1747C54.6799 72.1782 52.5779 70.5204 49.5254 68.113C49.2559 71.6586 49.0661 74.1544 48.8488 77.0126C45.6136 77.0126 42.5584 77.0126 39.148 77.0126C38.953 74.461 38.768 72.0415 38.5682 69.4274C34.572 68.0136 33.0429 77.1886 27.367 71.1794C22.1306 65.6355 28.2628 63.7174 29.7807 59.7472C26.4619 59.5175 24.0538 59.3508 21.1935 59.1528C21.1935 56.0469 21.1935 52.9912 21.1935 49.3308C23.6142 49.1611 26.1668 48.9821 29.2633 48.765C28.9714 44.8049 20.7861 41.7458 28.0152 37.1184ZM55.8539 50.014C52.8053 45.8023 57.1903 44.0368 58.7003 40.6833C57.1507 40.3179 55.6672 40.3144 54.7973 41.0433C52.9878 42.5594 51.7851 44.0381 48.8229 42.7258C45.9862 41.4689 45.958 39.6877 45.7186 37.2955C45.5994 36.1046 44.3253 35.0294 43.1568 33.2764C41.1689 37.2148 43.6588 40.6624 39.2877 42.6887C34.602 44.8607 33.8488 40.1107 30.831 39.3414C30.1981 40.0632 29.576 40.7727 29.8342 40.4782C30.9058 43.8786 32.3802 46.4262 32.3542 48.9585C32.3118 53.0926 28.7398 52.2448 25.9947 52.4457C25.3236 52.4948 24.723 53.506 24.09 54.0749C24.9614 54.7416 25.7929 55.9056 26.712 55.9796C29.2062 56.1803 32.1792 55.6417 32.2583 59.227C32.3011 61.1674 31.0506 63.1102 30.5756 65.0979C30.2816 66.3282 30.3482 67.6447 30.302 68.2638C33.7511 67.106 36.2085 65.5452 38.5929 65.6497C42.3517 65.8145 42.1907 69.108 42.2273 72.0305C42.2358 72.7065 43.5319 73.3663 44.2354 74.0336C44.7657 73.1692 45.735 72.3094 45.7441 71.4395C45.7714 68.8343 45.6819 65.999 48.9618 65.7648C50.8821 65.6277 52.8785 67.0378 54.8922 67.5486C56.1218 67.8605 57.4493 67.7867 58.0793 67.8354C56.9261 64.4172 55.4126 61.9882 55.453 59.5852C55.5192 55.6403 58.9102 56.0984 61.7505 55.9694C62.4837 55.9361 63.1625 54.7062 63.8664 54.0261C63.0359 53.4702 62.2715 52.7393 61.3609 52.3961C59.6455 51.7497 57.8458 51.3269 55.8539 50.014Z" fill="#9B0B29"/>
<path d="M75.6648 13.836C68.5939 13.8333 61.9789 13.9217 55.3712 13.7419C54.2153 13.7105 53.0901 12.5522 51.9507 11.9144C53.1147 11.3316 54.2683 10.2696 55.4442 10.2443C62.7146 10.0885 69.9905 10.1241 77.2634 10.2051C78.5526 10.2194 79.8361 10.7454 81.1223 11.0352C81.1428 11.6055 81.1634 12.1757 81.1839 12.746C79.497 13.1093 77.8102 13.4727 75.6648 13.836Z" fill="#A1233C"/>
<path d="M43.3462 15.5751C39.9059 17.838 36.734 17.8354 35.2028 14.2107C34.5156 12.584 35.2175 9.30779 36.5065 8.21111C37.7686 7.13741 41.015 7.10406 42.6134 8.00008C45.5001 9.61834 45.4993 12.5489 43.3462 15.5751Z" fill="#9F1C37"/>
<path d="M29.8298 8.63256C29.696 11.2975 29.9495 14.0794 28.7352 15.8606C28.0611 16.8496 24.4209 16.9354 23.0626 16.0224C21.722 15.1212 20.8456 12.3646 21.0516 10.5695C21.485 6.79281 25.2169 5.9684 29.8298 8.63256Z" fill="#9F1C37"/>
<path d="M16.9957 10.6588C17.4152 14.703 15.5864 17.1699 12.1258 16.8476C10.2956 16.6771 7.30718 14.1666 7.30939 12.7164C7.31237 10.76 9.34419 7.81454 11.1655 7.17584C12.5527 6.68939 14.9673 9.13262 16.9957 10.6588Z" fill="#A01833"/>
<path d="M55.9675 50.4126C57.8458 51.3269 59.6455 51.7497 61.3609 52.3961C62.2715 52.7393 63.0359 53.4702 63.8663 54.0261C63.1625 54.7062 62.4837 55.9361 61.7505 55.9694C58.9102 56.0984 55.5192 55.6403 55.4529 59.5852C55.4126 61.9882 56.9261 64.4172 58.0793 67.8354C57.4493 67.7867 56.1218 67.8605 54.8922 67.5486C52.8784 67.0378 50.8821 65.6277 48.9618 65.7648C45.6819 65.999 45.7714 68.8343 45.7441 71.4395C45.735 72.3094 44.7657 73.1692 44.2354 74.0336C43.5318 73.3663 42.2357 72.7065 42.2273 72.0305C42.1907 69.108 42.3517 65.8145 38.5929 65.6497C36.2085 65.5452 33.751 67.106 30.302 68.2638C30.3481 67.6447 30.2816 66.3282 30.5756 65.0979C31.0506 63.1102 32.3011 61.1674 32.2582 59.227C32.1792 55.6417 29.2062 56.1803 26.712 55.9796C25.7929 55.9056 24.9614 54.7416 24.09 54.0749C24.723 53.506 25.3236 52.4948 25.9947 52.4457C28.7398 52.2448 32.3117 53.0926 32.3542 48.9585C32.3802 46.4262 30.9057 43.8786 29.8342 40.4782C29.576 40.7727 30.1981 40.0632 30.8309 39.3414C33.8488 40.1107 34.602 44.8607 39.2877 42.6887C43.6588 40.6624 41.1689 37.2148 43.1568 33.2764C44.3253 35.0294 45.5994 36.1046 45.7186 37.2955C45.9579 39.6877 45.9862 41.4689 48.8229 42.7258C51.7851 44.0381 52.9878 42.5594 54.7972 41.0433C55.6672 40.3144 57.1507 40.3179 58.7003 40.6833C57.1903 44.0368 52.8052 45.8023 55.9675 50.4126ZM49.6974 49.1141C46.5549 45.917 42.6052 45.2393 39.5223 48.1693C37.6382 49.9599 36.4317 53.7274 36.7976 56.3447C37.4538 61.0397 42.4646 63.0813 46.8726 61.331C51.3776 59.5422 52.5909 55.2254 49.6974 49.1141Z" fill="#F8EDEF"/>
<path d="M49.9158 49.4205C52.5909 55.2254 51.3776 59.5423 46.8726 61.331C42.4646 63.0813 37.4538 61.0397 36.7976 56.3447C36.4318 53.7274 37.6382 49.9599 39.5223 48.1693C42.6052 45.2394 46.5549 45.917 49.9158 49.4205ZM41.3807 51.0154C39.1908 53.3944 38.9962 56.0628 41.8719 57.557C43.1805 58.237 45.7484 57.2328 47.3286 56.2925C47.9737 55.9086 48.0792 52.8888 47.4458 52.4313C45.9534 51.3535 43.8692 51.0951 41.3807 51.0154Z" fill="#A01833"/>
<path d="M41.7025 50.7603C43.8692 51.0951 45.9534 51.3535 47.4458 52.4313C48.0792 52.8888 47.9737 55.9086 47.3285 56.2925C45.7483 57.2328 43.1805 58.237 41.8718 57.557C38.9962 56.0628 39.1907 53.3943 41.7025 50.7603Z" fill="#FDFBFB"/>
</svg>
