<svg width="93" height="78" viewBox="0 0 93 78" fill="none" xmlns="http://www.w3.org/2000/svg">
<path d="M0.0417181 21.0597C0.0473341 16.7311 -0.0830984 12.8949 0.0907446 9.07254C0.344026 3.50373 3.78281 0.0665247 9.3313 0.0510057C33.9769 -0.0178873 58.623 -0.0168348 83.2687 0.0532182C88.9532 0.0693622 92.3265 3.29164 92.3634 9.04884C92.4903 28.8639 92.4895 48.681 92.3439 68.4958C92.3024 74.1515 89.1488 77.0895 83.5437 77.1041C58.7315 77.169 33.9189 77.1765 9.10675 77.1076C3.12908 77.091 0.0833897 73.6398 0.0553747 67.0198C-0.00871229 51.8662 0.0392311 36.7121 0.0417181 21.0597ZM58.8539 74.5759C60.2317 74.5087 61.6095 74.4416 63.887 74.6745C69.909 74.6642 75.9309 74.6538 82.6099 74.8385C83.4615 74.2744 84.3131 73.7102 85.9114 73.0851C89.9662 71.9116 89.7445 68.4893 89.7611 65.3877C89.8358 51.3929 89.8086 37.3976 89.7785 23.4025C89.7757 22.1448 89.4885 20.8877 89.3 19.3588C85.2761 19.3588 81.6264 19.343 77.9768 19.3614C57.6635 19.4636 37.3502 19.5741 16.1441 19.4301C11.8823 19.4301 7.6206 19.4301 3.04497 19.4301C3.04497 36.1601 2.93866 52.2446 3.12212 68.3258C3.1662 72.1896 5.99361 74.4791 9.7218 74.4917C23.4782 74.5381 37.2355 74.3045 51.8067 74.5862C53.8957 74.4851 55.9847 74.3839 58.8539 74.5759ZM34.8766 16.2776C36.2735 16.1977 37.6703 16.1178 39.9883 16.2245C56.4112 16.2245 72.8341 16.2245 89.1459 16.2245C90.6316 6.8686 88.5655 2.99015 82.0198 2.94213C67.7032 2.83706 53.3846 3.01055 38.2877 2.83941C37.213 2.90896 36.1383 2.97851 34.1427 2.8578C27.1166 2.92068 20.0905 2.98356 12.2386 2.84507C11.5779 2.83258 10.9117 2.75927 10.2572 2.81713C4.58752 3.31845 2.62003 6.15226 2.82401 12.8098C3.01143 18.9267 7.53474 15.6358 10.1507 16.269C11.6835 16.64 13.4182 16.1772 15.9212 16.2892C17.9682 16.2063 20.0151 16.1235 22.8735 16.2729C24.2698 16.2109 25.6661 16.1489 27.9213 16.2867C29.9683 16.2064 32.0154 16.126 34.8766 16.2776Z" fill="#9B1530"/>
<path d="M50.9925 74.1761C37.2355 74.3045 23.4782 74.5381 9.7218 74.4917C5.9936 74.4792 3.16619 72.1896 3.12211 68.3258C2.93865 52.2446 3.04496 36.1601 3.04496 19.4301C7.6206 19.4301 11.8823 19.4301 16.5952 19.7992C17.0561 20.4926 17.0635 20.8171 16.8103 21.3596C10.8272 24.0638 7.46754 28.3375 7.55422 34.6563C7.62864 40.0822 10.4051 44.1801 15.3231 46.5012C20.6959 49.037 25.6319 47.9386 30.3701 44.0426C31.4422 44.0509 32.1569 44.0544 33.0312 44.4036C34.5028 44.4517 36.0686 44.5104 37.08 43.7903C40.261 41.5255 43.2981 39.0435 46.2699 36.504C49.6094 33.6504 52.754 33.8213 55.8972 36.7213C59.0961 39.6726 63.203 41.8758 63.7722 46.949C63.8578 47.7119 65.2754 48.3254 66.068 49.2885C66.0371 49.9419 66.015 50.3148 65.4212 50.7879C63.9433 51.9479 63.037 53.0075 61.5057 53.9797C60.6081 51.6273 60.6528 49.2547 59.9354 47.1408C59.5486 46.0011 57.8349 44.537 56.7588 44.568C54.5535 44.6315 50.4796 45.5746 50.4696 46.2072C50.3282 55.2196 50.738 64.2406 51.0027 73.4123C50.9733 73.7687 50.9739 73.9725 50.9925 74.1761ZM47.1581 72.7348C47.4562 66.1904 47.9717 59.6393 47.7725 53.11C47.7481 52.3096 43.8936 51.0798 41.8217 51.095C40.5977 51.1041 38.4349 53.0948 38.3395 54.3223C37.942 59.4376 37.942 64.6188 38.3329 69.7348C38.4254 70.9454 40.4327 72.3857 41.8678 73.0041C43.1182 73.5429 44.8039 73.0718 47.1581 72.7348ZM25.5253 62.0647C29.0526 61.9023 32.5798 61.7399 36.1071 61.5774C36.0545 60.9142 36.0019 60.2511 35.9493 59.5879C27.0148 59.5879 18.0804 59.5879 9.14588 59.5879C9.10304 60.2091 9.06021 60.8303 9.01736 61.4515C14.0671 62.7491 19.3791 61.742 25.5253 62.0647ZM19.6018 54.1119C25.066 53.7482 30.6954 54.8889 37.2398 53.155C32.4334 50.1245 12.4324 50.1799 9.01592 53.5963C12.2176 53.7681 15.4192 53.94 19.6018 54.1119ZM12.9332 69.9744C16.9084 69.975 20.8836 69.9774 24.8587 69.9758C34.2114 69.9719 34.2114 69.9711 36.2487 67.4098C26.9644 67.4098 18.0741 67.4098 9.18392 67.4098C9.09364 67.8897 9.00335 68.3697 8.91307 68.8497C9.94587 69.2229 10.9787 69.596 12.9332 69.9744Z" fill="#F8EFF1"/>
<path d="M32.8717 44.0578C32.1569 44.0544 31.4422 44.0509 30.46 43.6868C36.1436 34.7822 34.6475 25.7924 26.2904 22.2751C23.5438 21.1192 20.1605 21.4763 17.0683 21.1416C17.0635 20.8171 17.0562 20.4926 17.0416 19.925C37.3502 19.5741 57.6635 19.4636 77.9768 19.3614C81.6264 19.343 85.2761 19.3588 89.3 19.3588C89.4885 20.8877 89.7757 22.1448 89.7785 23.4025C89.8086 37.3976 89.8358 51.393 89.7611 65.3877C89.7445 68.4893 89.9662 71.9116 85.2125 73.0391C84.0678 72.9935 83.6219 72.9939 83.2393 72.5843C83.5236 64.748 83.8494 57.3231 83.9394 49.8952C84.0499 40.7735 83.9647 40.7725 73.8792 41.7167C73.8792 45.0737 73.8792 48.5104 73.4049 51.979C72.6145 52.0325 72.2984 52.0541 71.7227 51.8386C70.3509 51.3 69.2386 50.9985 68.1248 50.4077C68.0955 49.7338 68.0676 49.3492 68.3439 48.7892C69.6054 47.1789 70.5492 45.7346 71.5226 44.3106C74.3399 40.1896 76.3203 34.1261 80.2009 32.4376C85.4524 30.1528 83.9628 27.0401 85.2355 22.8052C81.476 23.8426 78.8963 24.5545 76.3289 25.2629C76.7895 27.0857 77.7418 28.7606 77.2808 29.3751C74.5974 32.9513 71.6991 36.392 68.5853 39.5988C67.9223 40.2816 65.5136 40.3913 64.8541 39.7669C61.4691 36.5621 58.427 32.9984 55.1915 29.6308C53.9259 28.3134 52.5018 26.2702 51.0889 26.2184C49.6649 26.1661 47.9445 27.9794 46.7508 29.3269C44.9753 31.3312 43.7724 33.8607 41.9216 35.7762C39.0856 38.7113 35.9057 41.314 32.8717 44.0578Z" fill="#F6EBEE"/>
<path d="M39.0668 3.07026C53.3846 3.01056 67.7032 2.83707 82.0198 2.94214C88.5655 2.99016 90.6316 6.86861 89.1459 16.2245C72.8341 16.2245 56.4112 16.2245 39.5369 15.7918C39.0714 14.9067 39.0572 14.4542 39.2501 13.7094C42.0788 10.5124 41.4555 7.77399 39.0439 4.78492C39.0591 3.98482 39.0629 3.52755 39.0668 3.07026ZM65.5782 7.96619C61.8082 8.10262 58.0381 8.23907 52.9731 8.42237C57.3934 11.8309 82.009 11.944 86.9789 8.71024C79.3672 7.36355 72.9198 8.24396 65.5782 7.96619Z" fill="#FBF5F6"/>
<path d="M13.0643 3.04644C20.0905 2.98356 27.1166 2.92068 34.6048 3.24129C35.0711 3.81698 35.0755 4.00918 34.7569 4.4119C33.3673 5.45348 31.7299 6.07876 31.3421 7.15446C30.2184 10.2721 31.3604 12.8689 34.1727 14.9835C34.1015 15.5724 34.082 15.809 34.0624 16.0456C32.0154 16.126 29.9683 16.2064 27.4898 15.8268C27.0448 14.8869 27.0314 14.4071 27.2183 13.6166C28.0577 10.7479 28.6967 8.18967 29.4941 4.99773C25.4107 4.99773 22.4244 4.99773 19.6049 4.99773C18.555 9.17336 18.4465 12.5113 22.159 15.0107C22.0952 15.5818 22.0787 15.8112 22.0621 16.0406C20.0151 16.1235 17.9682 16.2063 15.4891 15.8283C15.0436 14.8864 15.0303 14.4053 15.2145 13.615C16.0617 10.763 16.7113 8.22028 17.3205 5.83556C15.4081 5.10572 14.2283 4.65548 13.0547 3.91558C13.062 3.43275 13.0632 3.2396 13.0643 3.04644Z" fill="#F6E4E4"/>
<path d="M71.9823 52.0756C72.2984 52.054 72.6146 52.0325 73.502 52.3799C74.0852 56.5448 74.111 60.3407 74.1057 64.1366C74.0948 71.8761 74.089 71.8705 81.514 73.2509C81.7472 73.2942 81.9086 73.7244 82.0231 74.1319C81.9427 74.2896 81.9529 74.6435 81.9529 74.6435C75.9309 74.6538 69.909 74.6642 63.4266 74.3083C63.0128 73.657 63.043 73.3701 63.5004 73.0503C72.5568 72.8976 71.8788 74.2485 71.9119 65.0092C71.9273 60.698 71.9583 56.3868 71.9823 52.0756Z" fill="#E9CCD2"/>
<path d="M15.0169 13.9242C15.0303 14.4053 15.0436 14.8864 15.0595 15.7285C13.4182 16.1772 11.6835 16.64 10.1507 16.269C7.53474 15.6358 3.01142 18.9267 2.824 12.8098C2.62002 6.15226 4.58752 3.31844 10.2572 2.81713C10.9117 2.75927 11.5778 2.83257 12.6515 2.94576C13.0632 3.2396 13.062 3.43275 12.6913 3.98177C8.38479 4.8061 6.09072 6.9528 7.17292 10.9243C8.27699 14.9761 11.4764 15.3191 15.0169 13.9242Z" fill="#EDD7DC"/>
<path d="M51.3996 74.3812C50.974 73.9725 50.9733 73.7687 51.4456 73.4045C53.9601 73.2455 56.0196 73.2471 58.0868 73.4212C58.1174 73.8243 58.1105 74.054 58.0737 74.2827C55.9847 74.3839 53.8957 74.4851 51.3996 74.3812Z" fill="#F6E4E4"/>
<path d="M58.4638 74.4293C58.1105 74.054 58.1174 73.8243 58.6012 73.1403C59.4269 71.6028 59.746 70.5187 60.4835 69.7319C61.6203 71.0467 62.3386 72.0641 63.0569 73.0815C63.043 73.3701 63.0128 73.657 62.9768 74.1583C61.6095 74.4416 60.2317 74.5087 58.4638 74.4293Z" fill="#F8EFF1"/>
<path d="M27.018 13.9272C27.0314 14.4071 27.0448 14.8869 27.0603 15.7269C25.6661 16.1489 24.2698 16.2109 22.4678 16.1568C22.0787 15.8112 22.0952 15.5819 22.5101 15.0061C24.2783 14.4156 25.6481 14.1714 27.018 13.9272Z" fill="#EDD7DC"/>
<path d="M34.4695 16.1617C34.082 15.8091 34.1015 15.5725 34.5233 14.9899C36.298 14.4299 37.6705 14.2159 39.043 14.0018C39.0572 14.4542 39.0714 14.9067 39.0764 15.6985C37.6703 16.1178 36.2735 16.1977 34.4695 16.1617Z" fill="#EDD7DC"/>
<path d="M35.0799 4.20138C35.0755 4.00919 35.0711 3.81699 35.0651 3.33643C36.1383 2.97852 37.213 2.90897 38.6772 2.95484C39.0629 3.52755 39.0591 3.98482 38.7077 4.73759C37.2668 4.75584 36.1733 4.47861 35.0799 4.20138Z" fill="#EDD7DC"/>
<path d="M82.2814 74.741C81.9529 74.6435 81.9427 74.2896 82.2672 74.0559C82.7865 73.5463 82.9813 73.2703 83.1761 72.9944C83.6219 72.9939 84.0678 72.9935 84.8391 73.0696C84.3131 73.7102 83.4615 74.2744 82.2814 74.741Z" fill="#D59CA8"/>
<path d="M16.8103 21.3596C20.1605 21.4763 23.5438 21.1192 26.2904 22.2751C34.6475 25.7924 36.1436 34.7822 30.1026 43.6819C25.6319 47.9387 20.6959 49.037 15.3231 46.5012C10.4051 44.1801 7.62865 40.0822 7.55423 34.6563C7.46755 28.3376 10.8272 24.0638 16.8103 21.3596ZM26.6781 35.3195C20.9044 34.7251 18.4522 38.768 15.5633 42.6633C21.8123 45.7358 27.6714 44.0051 29.9328 38.8618C31.0411 36.3409 30.5174 35.0139 26.6781 35.3195ZM10.8977 33.7411C11.2817 35.6743 11.6657 37.6075 12.1157 39.8729C18.6099 35.9902 21.2278 31.3165 19.4132 24.3597C14.5903 25.4065 11.7975 28.1593 10.8977 33.7411ZM23.0738 28.7132C23.6323 32.798 24.8545 33.1926 30.7477 30.634C29.0653 28.8519 27.7557 27.0022 26.0203 25.7364C23.5227 23.9149 23.0269 25.6823 23.0738 28.7132Z" fill="#A1233C"/>
<path d="M33.0312 44.4036C35.9057 41.314 39.0856 38.7113 41.9216 35.7762C43.7724 33.8607 44.9753 31.3312 46.7508 29.3268C47.9445 27.9794 49.6649 26.1661 51.0889 26.2184C52.5018 26.2702 53.9259 28.3134 55.1915 29.6307C58.427 32.9984 61.4691 36.5621 64.8541 39.7669C65.5136 40.3913 67.9223 40.2816 68.5853 39.5988C71.6991 36.392 74.5974 32.9513 77.2808 29.375C77.7418 28.7606 76.7895 27.0857 76.3289 25.2629C78.8963 24.5545 81.476 23.8426 85.2355 22.8052C83.9628 27.0401 85.4524 30.1528 80.2009 32.4376C76.3203 34.126 74.3399 40.1896 71.5226 44.3106C70.5492 45.7346 69.6054 47.1789 68.0184 48.7093C66.9515 48.8725 66.5142 48.9402 66.0769 49.008C65.2754 48.3254 63.8578 47.7119 63.7722 46.949C63.203 41.8757 59.0961 39.6726 55.8972 36.7213C52.754 33.8213 49.6094 33.6504 46.2699 36.504C43.2981 39.0434 40.261 41.5255 37.08 43.7903C36.0686 44.5104 34.5029 44.4517 33.0312 44.4036Z" fill="#A1233C"/>
<path d="M60.065 69.4346C59.746 70.5187 59.427 71.6028 58.5936 72.9678C56.0196 73.2471 53.9601 73.2455 51.4577 73.2518C50.738 64.2406 50.3282 55.2196 50.4697 46.2072C50.4796 45.5746 54.5535 44.6315 56.7588 44.568C57.8349 44.537 59.5486 46.0011 59.9354 47.1408C60.6529 49.2547 60.6081 51.6273 61.5063 54.1567C61.4429 59.4257 60.754 64.4302 60.065 69.4346ZM53.2506 63.3844C53.2491 64.2151 53.0551 65.1049 53.288 65.8637C53.7112 67.2425 54.3882 68.5434 54.9593 69.8768C55.6276 68.4722 56.7996 67.0932 56.8724 65.6584C57.1162 60.8526 57.0791 56.0224 56.8891 51.2117C56.8424 50.0303 55.8056 48.888 55.224 47.7277C54.5671 48.8062 53.4132 49.8538 53.3436 50.969C53.1063 54.7756 53.2505 58.606 53.2506 63.3844Z" fill="#A1233C"/>
<path d="M60.4835 69.7319C60.754 64.4301 61.4429 59.4257 62.1313 54.2442C63.037 53.0075 63.9433 51.9479 65.7685 50.9178C67.1671 50.864 67.6467 50.7805 68.1263 50.697C69.2386 50.9985 70.3509 51.3 71.7227 51.8386C71.9583 56.3868 71.9273 60.698 71.9119 65.0092C71.8788 74.2485 72.5567 72.8976 63.5004 73.0503C62.3386 72.0641 61.6203 71.0467 60.4835 69.7319ZM65.153 60.6417C65.1582 62.9672 65.0019 65.3105 65.2551 67.6087C65.3455 68.4292 66.4274 69.1405 67.0568 69.9017C67.6845 69.1293 68.8067 68.3861 68.8544 67.5795C69.0594 64.1031 69.0794 60.6004 68.875 57.1244C68.8136 56.0787 67.8089 55.0885 67.2364 54.0729C66.5482 55.1227 65.7111 56.109 65.2265 57.2456C64.926 57.9505 65.1604 58.8833 65.153 60.6417Z" fill="#9F1C37"/>
<path d="M46.7276 72.8909C44.8039 73.0718 43.1182 73.5429 41.8678 73.0041C40.4327 72.3857 38.4254 70.9454 38.3329 69.7348C37.942 64.6188 37.942 59.4376 38.3395 54.3223C38.4349 53.0948 40.5977 51.1041 41.8217 51.095C43.8936 51.0797 47.7481 52.3096 47.7725 53.11C47.9717 59.6393 47.4562 66.1904 46.7276 72.8909ZM41.9103 54.4675C41.7097 58.8852 41.4142 63.3027 41.4033 67.7208C41.4015 68.4446 42.6529 69.1716 43.3251 69.8971C43.8924 69.0661 44.9075 68.2569 44.9492 67.4003C45.1259 63.7722 45.1552 60.1201 44.9016 56.5004C44.842 55.6499 43.4695 54.8914 41.9103 54.4675Z" fill="#9F1C37"/>
<path d="M25.0321 62.0689C19.3791 61.742 14.0671 62.7491 9.01736 61.4515C9.06021 60.8303 9.10304 60.2091 9.14589 59.5879C18.0804 59.5879 27.0148 59.5879 35.9493 59.5879C36.0019 60.2511 36.0545 60.9142 36.1071 61.5774C32.5798 61.7398 29.0526 61.9023 25.0321 62.0689Z" fill="#A1233C"/>
<path d="M19.1113 54.1119C15.4192 53.94 12.2176 53.7681 9.01593 53.5963C12.4324 50.1799 32.4334 50.1245 37.2398 53.1551C30.6954 54.8889 25.0661 53.7482 19.1113 54.1119Z" fill="#A62B44"/>
<path d="M12.4724 69.9718C10.9787 69.596 9.94588 69.2229 8.91307 68.8497C9.00336 68.3697 9.09364 67.8897 9.18393 67.4098C18.0741 67.4098 26.9644 67.4098 36.2487 67.4098C34.2114 69.9711 34.2114 69.9719 24.8587 69.9758C20.8836 69.9774 16.9084 69.975 12.4724 69.9718Z" fill="#A1233C"/>
<path d="M68.1248 50.4077C67.6467 50.7805 67.1671 50.864 66.3402 50.8176C66.015 50.3147 66.0371 49.9419 66.068 49.2885C66.5142 48.9402 66.9515 48.8725 67.7142 48.8846C68.0676 49.3491 68.0955 49.7338 68.1248 50.4077Z" fill="#E9CCD2"/>
<path d="M83.2393 72.5843C82.9813 73.2703 82.7865 73.5462 82.3475 73.8982C81.9086 73.7244 81.7472 73.2942 81.514 73.2508C74.089 71.8704 74.0948 71.8761 74.1057 64.1365C74.111 60.3407 74.0852 56.5448 73.9763 52.348C73.8792 48.5104 73.8792 45.0737 73.8792 41.7166C83.9647 40.7725 84.0499 40.7735 83.9394 49.8952C83.8494 57.323 83.5236 64.748 83.2393 72.5843ZM80.9071 56.5726C80.9075 53.425 81.0627 50.265 80.8133 47.1374C80.7391 46.2067 79.5294 45.3666 78.84 44.4849C78.2691 45.2896 77.2158 46.0863 77.2022 46.9003C77.0753 54.4798 77.1271 62.0623 77.1271 69.644C77.691 69.8768 78.2548 70.1097 78.8186 70.3426C79.5156 69.2277 80.7086 68.1575 80.8136 66.9895C81.0945 63.8672 80.9083 60.7029 80.9071 56.5726Z" fill="#9F1C37"/>
<path d="M66.0767 7.96616C72.9198 8.24395 79.3672 7.36353 86.9789 8.71023C82.009 11.944 57.3934 11.8309 52.9731 8.42236C58.0381 8.23905 61.8082 8.10261 66.0767 7.96616Z" fill="#A01833"/>
<path d="M34.7568 4.4119C36.1733 4.47859 37.2668 4.75581 38.6964 5.08037C41.4555 7.77397 42.0787 10.5124 39.2501 13.7094C37.6705 14.2158 36.298 14.4299 34.5749 14.6375C31.3604 12.8689 30.2184 10.2721 31.3421 7.15445C31.7299 6.07875 33.3672 5.45348 34.7568 4.4119Z" fill="#A1233C"/>
<path d="M27.2183 13.6166C25.6481 14.1714 24.2783 14.4155 22.5573 14.6644C18.4465 12.5113 18.555 9.17337 19.6049 4.99774C22.4244 4.99774 25.4107 4.99774 29.4941 4.99774C28.6967 8.18968 28.0577 10.7479 27.2183 13.6166Z" fill="#A1233C"/>
<path d="M15.2145 13.615C11.4764 15.3192 8.27699 14.9761 7.17292 10.9243C6.09072 6.9528 8.38479 4.80611 12.6852 4.27145C14.2283 4.65549 15.4081 5.10573 17.3205 5.83557C16.7113 8.22029 16.0617 10.763 15.2145 13.615Z" fill="#A62B44"/>
<path d="M27.1057 35.3051C30.5174 35.0139 31.0411 36.3409 29.9328 38.8617C27.6714 44.0051 21.8123 45.7358 15.5633 42.6632C18.4522 38.7679 20.9044 34.725 27.1057 35.3051Z" fill="#F6E4E4"/>
<path d="M10.9302 33.325C11.7975 28.1593 14.5903 25.4065 19.4132 24.3597C21.2278 31.3165 18.6098 35.9902 12.1157 39.8729C11.6657 37.6075 11.2817 35.6743 10.9302 33.325Z" fill="#F6EAEC"/>
<path d="M23.0809 28.2814C23.0269 25.6823 23.5227 23.9148 26.0203 25.7364C27.7557 27.0021 29.0653 28.8518 30.7477 30.634C24.8545 33.1926 23.6323 32.798 23.0809 28.2814Z" fill="#F6EAEC"/>
<path d="M53.2499 62.9058C53.2505 58.606 53.1063 54.7756 53.3436 50.969C53.4132 49.8538 54.5671 48.8062 55.224 47.7277C55.8056 48.888 56.8424 50.0303 56.8891 51.2117C57.0791 56.0223 57.1162 60.8525 56.8724 65.6584C56.7996 67.0932 55.6276 68.4722 54.9593 69.8768C54.3882 68.5434 53.7112 67.2425 53.2879 65.8637C53.0551 65.1049 53.2491 64.2151 53.2499 62.9058Z" fill="#EDD7DC"/>
<path d="M65.1538 60.1778C65.1604 58.8833 64.926 57.9505 65.2265 57.2456C65.7111 56.109 66.5482 55.1227 67.2364 54.0729C67.8089 55.0885 68.8136 56.0787 68.875 57.1244C69.0793 60.6004 69.0594 64.1031 68.8543 67.5795C68.8067 68.3861 67.6845 69.1293 67.0568 69.9017C66.4274 69.1405 65.3455 68.4292 65.2551 67.6087C65.0019 65.3105 65.1582 62.9672 65.1538 60.1778Z" fill="#EDD7DC"/>
<path d="M42.3057 54.2791C43.4695 54.8914 44.842 55.6499 44.9016 56.5004C45.1552 60.1201 45.1259 63.7722 44.9492 67.4003C44.9075 68.2569 43.8924 69.0661 43.3251 69.8971C42.6529 69.1716 41.4015 68.4447 41.4033 67.7208C41.4142 63.3027 41.7097 58.8852 42.3057 54.2791Z" fill="#EDD7DC"/>
<path d="M80.9074 57.064C80.9083 60.7029 81.0945 63.8672 80.8136 66.9895C80.7086 68.1575 79.5156 69.2278 78.8186 70.3426C78.2548 70.1097 77.691 69.8768 77.1271 69.644C77.1271 62.0623 77.0753 54.4798 77.2022 46.9003C77.2158 46.0863 78.2691 45.2897 78.84 44.485C79.5294 45.3666 80.7391 46.2067 80.8133 47.1374C81.0627 50.2651 80.9075 53.425 80.9074 57.064Z" fill="#F6E4E4"/>
</svg>
