<svg width="94" height="67" viewBox="0 0 94 67" fill="none" xmlns="http://www.w3.org/2000/svg">
<path d="M6.26999 0.114252C32.8479 0.040125 58.9917 -0.0260984 85.1353 0.0102786C90.9342 0.0183666 93.6292 2.82611 93.648 8.65359C93.7008 24.9729 93.6944 41.2927 93.6505 57.6121C93.6349 63.4004 90.9001 66.3113 85.196 66.3261C59.5513 66.3925 33.9062 66.3924 8.26149 66.3216C2.96538 66.307 0.157455 63.7033 0.104095 58.3481C-0.0634921 41.5311 0.0142358 24.7113 0.0449518 7.89266C0.0521688 3.94375 1.97371 1.29052 6.26999 0.114252ZM17.155 4.03594C15.3228 4.03603 13.4906 4.03247 11.6584 4.03692C4.64909 4.05389 4.2964 4.38629 4.29056 11.3469C4.27814 26.171 4.40115 40.9965 4.22055 55.8184C4.16286 60.5536 5.85934 62.2586 10.655 62.2248C34.8055 62.054 58.9583 62.0676 83.109 62.2142C87.818 62.2428 89.6826 60.625 89.6239 55.8234C89.4409 40.835 89.5692 25.8429 89.5508 10.8522C89.5432 4.65258 88.9216 4.04495 82.604 4.04107C61.1174 4.02779 39.6307 4.03597 17.155 4.03594Z" fill="#9E132F"/>
<path d="M17.6495 4.03594C39.6307 4.03597 61.1174 4.02779 82.604 4.04107C88.9216 4.04494 89.5432 4.65258 89.5508 10.8522C89.5692 25.8429 89.4409 40.835 89.6239 55.8234C89.6826 60.625 87.818 62.2428 83.109 62.2142C58.9583 62.0676 34.8055 62.054 10.655 62.2248C5.85934 62.2586 4.16286 60.5536 4.22055 55.8184C4.40115 40.9965 4.27814 26.171 4.29056 11.3469C4.2964 4.38628 4.64909 4.05389 11.6584 4.03692C13.4906 4.03246 15.3228 4.03603 17.6495 4.03594ZM39.1967 51.8802C43.1965 50.4263 44.5059 47.4666 44.6097 43.3506C44.795 36.0069 38.6762 35.0396 34.1066 32.5016C37.0791 25.1315 36.556 19.3311 32.548 16.4601C29.2038 14.0646 25.4741 13.9296 22.3849 16.5222C16.8811 21.141 18.7596 26.8834 20.8254 32.4749C18.5354 33.6339 16.2777 34.6648 14.1289 35.8872C9.55212 38.4907 10.0772 42.9753 10.8685 46.9528C11.585 50.5549 14.5957 52.1363 18.4106 52.0748C25.054 51.9678 31.7 52.0255 39.1967 51.8802ZM75.0141 44.1692C68.5602 44.1693 62.1018 44.0405 55.6562 44.2706C54.2493 44.3208 52.8882 45.653 51.506 46.3947C52.9398 47.0418 54.3585 48.2051 55.81 48.2477C62.589 48.4465 69.3837 48.5063 76.158 48.2393C78.3871 48.1515 80.5717 46.9317 82.7766 46.2295C80.5122 45.5427 78.2479 44.856 75.0141 44.1692ZM81.6002 35.0754C84.2406 31.6847 81.9271 31.2117 79.2243 31.1936C71.2711 31.1404 63.3152 31.0811 55.3661 31.2671C54.0782 31.2973 52.8193 32.567 51.547 33.2638C52.8138 33.9525 54.0697 35.2131 55.3492 35.2374C63.7959 35.3982 72.2477 35.2933 81.6002 35.0754ZM82.7661 19.6092C81.8426 19.0813 80.9255 18.1085 79.9945 18.095C71.5447 17.9725 63.0916 17.9571 54.6422 18.0909C53.5959 18.1074 52.5663 19.1782 51.5289 19.7606C52.5458 20.561 53.5479 22.033 54.5818 22.0558C63.0293 22.2412 71.4833 22.2067 79.9331 22.0818C80.8616 22.068 81.7754 21.0644 82.7661 19.6092Z" fill="#FEFCFC"/>
<path d="M38.7708 51.9472C31.7 52.0255 25.054 51.9678 18.4106 52.0748C14.5957 52.1362 11.585 50.5549 10.8685 46.9527C10.0772 42.9753 9.55212 38.4906 14.1289 35.8872C16.2777 34.6648 18.5354 33.6339 20.8254 32.4749C18.7596 26.8833 16.8811 21.141 22.3849 16.5222C25.4742 13.9296 29.2038 14.0646 32.548 16.4601C36.556 19.3311 37.0791 25.1315 34.1066 32.5016C38.6762 35.0396 44.795 36.0069 44.6097 43.3506C44.5059 47.4666 43.1965 50.4263 38.7708 51.9472ZM32.973 48.2888C33.9671 48.2882 35.0768 48.5724 35.9307 48.226C37.5642 47.5634 40.2494 46.6633 40.3526 45.6444C40.5711 43.4879 40.1427 40.3067 38.6898 39.1042C32.0392 33.5999 22.8833 33.6039 16.2772 39.1154C14.8362 40.3176 14.4349 43.5103 14.6758 45.6606C14.7909 46.6877 17.4801 48.0356 19.0913 48.1678C23.3705 48.519 27.6975 48.2881 32.973 48.2888ZM32.3803 26.2448C32.2136 24.6203 32.4167 22.8377 31.8038 21.404C30.5004 18.3549 27.6778 16.7728 25.1623 19.1722C23.4968 20.7607 22.7968 24.0703 22.9093 26.5531C22.9788 28.0867 25.5574 30.8433 26.7039 30.6945C28.679 30.4383 30.4156 28.3442 32.3803 26.2448Z" fill="#A01833"/>
<path d="M75.4988 44.1692C78.2479 44.856 80.5122 45.5428 82.7766 46.2295C80.5717 46.9317 78.3871 48.1515 76.158 48.2393C69.3837 48.5063 62.589 48.4465 55.81 48.2477C54.3585 48.2051 52.9398 47.0418 51.506 46.3947C52.8882 45.653 54.2493 44.3208 55.6562 44.2706C62.1018 44.0405 68.5602 44.1693 75.4988 44.1692Z" fill="#990725"/>
<path d="M81.149 35.1752C72.2477 35.2933 63.7959 35.3982 55.3492 35.2374C54.0697 35.2131 52.8138 33.9525 51.547 33.2638C52.8193 32.567 54.0782 31.2973 55.3661 31.2671C63.3152 31.0811 71.2711 31.1404 79.2243 31.1936C81.9271 31.2117 84.2406 31.6847 81.149 35.1752Z" fill="#990523"/>
<path d="M82.7311 20.0646C81.7754 21.0644 80.8616 22.0681 79.9331 22.0818C71.4833 22.2067 63.0293 22.2412 54.5818 22.0558C53.5479 22.0331 52.5458 20.561 51.5289 19.7606C52.5663 19.1783 53.5959 18.1075 54.6422 18.0909C63.0916 17.9571 71.5447 17.9725 79.9945 18.095C80.9255 18.1085 81.8426 19.0813 82.7311 20.0646Z" fill="#990523"/>
<path d="M32.4893 48.2888C27.6975 48.2881 23.3705 48.519 19.0913 48.1678C17.4801 48.0356 14.7909 46.6877 14.6758 45.6606C14.4349 43.5103 14.8362 40.3176 16.2772 39.1154C22.8833 33.6039 32.0392 33.5999 38.6898 39.1042C40.1427 40.3067 40.5711 43.4879 40.3526 45.6444C40.2494 46.6633 37.5642 47.5634 35.9307 48.226C35.0768 48.5724 33.9671 48.2882 32.4893 48.2888Z" fill="#FEFCFC"/>
<path d="M32.3163 26.6331C30.4156 28.3442 28.679 30.4383 26.7039 30.6945C25.5574 30.8433 22.9788 28.0868 22.9093 26.5531C22.7968 24.0703 23.4968 20.7607 25.1623 19.1722C27.6778 16.7728 30.5004 18.3549 31.8038 21.404C32.4167 22.8377 32.2136 24.6203 32.3163 26.6331Z" fill="#FBF5F6"/>
</svg>
