<svg width="1201" height="290" viewBox="0 0 1201 290" fill="none" xmlns="http://www.w3.org/2000/svg">
<path d="M1201 290.361C800.788 290.361 400.576 290.361 0 290.361C0 229.001 -2.98023e-08 167.641 0.295509 105.653C15.3941 94.6081 31.7754 88.4416 49.9287 88.4267C195.375 88.3075 340.822 88.3598 486.268 88.3597C488.021 88.3597 489.773 88.3597 491.463 88.3597C495.254 141.73 535.869 184.689 589.337 190.11C615.68 192.781 640.391 186.981 662.347 171.661C691.26 151.487 706.664 123.348 710.062 88.3598C711.691 88.3598 712.845 88.3598 713.999 88.3598C860.112 88.3599 1006.23 88.3584 1152.34 88.3784C1154.33 88.3786 1156.32 88.5966 1158.3 88.8046C1173.85 90.436 1187.91 96.0619 1200.88 105.16C1200.96 167.189 1200.98 228.775 1201 290.361ZM406.999 140.856C389.383 124.317 368.363 119.031 345.102 123.504C317.347 128.842 297.624 148.87 293.668 175.795C290.641 196.399 298.283 213.603 313.058 227.967C314.703 229.567 315.809 232.339 316.019 234.671C316.464 239.628 316.28 244.657 316.116 249.649C315.981 253.787 317.501 254.815 321.18 252.975C326.824 250.151 332.44 247.256 338.199 244.687C340.035 243.868 342.429 243.356 344.331 243.776C359.538 247.137 374.101 245.08 388.269 239.091C428.031 222.283 437.938 171.92 406.999 140.856ZM141.124 242.786C141.124 243.619 141.236 244.47 141.105 245.282C140.317 250.162 142.41 251.554 147.178 251.333C155.324 250.955 163.5 251.242 171.662 251.224C179.677 251.206 181.093 249.83 181.1 242.02C181.114 225.694 181.104 209.368 181.104 193.042C181.104 191.255 181.104 189.468 181.104 187.624C184.022 187.144 186.352 186.958 188.571 186.358C194.578 184.734 196.02 180.16 191.708 176.059C172.399 157.695 153.067 139.353 133.61 121.145C126.977 114.938 123.453 115.121 116.906 121.205C97.7527 139.002 78.5587 156.757 59.5765 174.736C57.6892 176.523 55.593 180.447 56.3583 182.096C57.3684 184.274 61.052 186.251 63.6923 186.397C68.1004 186.641 68.8419 188.41 68.8075 192.239C68.6564 209.063 68.7219 225.89 68.7539 242.716C68.767 249.602 70.375 251.182 77.3592 251.217C86.1883 251.261 95.0216 251.076 103.845 251.299C107.57 251.393 108.813 250.138 108.755 246.433C108.581 235.274 108.788 224.11 108.654 212.95C108.603 208.682 110.321 206.907 114.596 207.01C121.422 207.174 128.259 207.194 135.084 207.004C139.672 206.876 141.263 208.885 141.177 213.318C140.994 222.81 141.123 232.308 141.124 242.786ZM1128.55 212.439C1120.04 196.57 1107 187.087 1088.87 186.295C1073.26 185.613 1057.57 185.706 1041.94 186.297C1021.18 187.082 1002.98 202.807 999.145 223.226C997.779 230.497 998.448 238.132 997.852 245.574C997.477 250.26 999.231 251.515 1003.81 251.497C1045.1 251.339 1086.38 251.405 1127.67 251.404C1128.5 251.404 1129.53 251.713 1130.12 251.331C1131.33 250.545 1133.21 249.4 1133.22 248.383C1133.37 236.451 1134.6 224.341 1128.55 212.439ZM754.615 164.512C753.387 168.537 751.158 172.547 751.098 176.59C750.756 199.58 750.93 222.577 750.933 245.572C750.935 254.117 751.151 254.345 759.52 254.345C814.341 254.349 869.162 254.347 923.984 254.344C925.316 254.344 926.649 254.291 927.981 254.289C931.513 254.284 932.927 252.643 932.902 249.011C932.781 231.015 932.911 213.019 932.818 195.023C932.774 186.431 927.722 181.304 919.095 181.221C904.344 181.078 889.589 181.182 874.221 181.182C874.221 180.2 874.222 178.433 874.221 176.666C874.218 162.836 874.309 149.005 874.172 135.176C874.098 127.597 869.331 122.346 861.837 122.172C848.681 121.866 835.508 121.867 822.351 122.159C814.481 122.334 809.914 127.468 809.795 135.427C809.688 142.59 809.79 149.757 809.753 156.922C809.744 158.469 809.535 160.015 809.417 161.585C806.617 161.205 804.489 160.68 802.358 160.667C789.862 160.589 777.357 160.402 764.872 160.786C761.611 160.886 758.409 162.89 754.615 164.512ZM1092.25 160.977C1092.98 159.305 1093.83 157.676 1094.41 155.953C1098.45 143.759 1094.64 130.584 1084.84 122.641C1075.09 114.731 1060.89 113.631 1050.29 119.966C1039.23 126.576 1033.63 138.734 1035.8 151.411C1037.95 163.945 1047.08 173.443 1059.49 176.039C1072.38 178.737 1084 173.575 1092.25 160.977Z" fill="#980422"/>
<path d="M407.25 141.108C437.938 171.92 428.031 222.283 388.269 239.091C374.101 245.08 359.538 247.137 344.331 243.776C342.429 243.356 340.035 243.868 338.199 244.687C332.44 247.256 326.824 250.151 321.18 252.975C317.501 254.815 315.981 253.787 316.116 249.649C316.28 244.657 316.464 239.628 316.019 234.671C315.809 232.339 314.703 229.567 313.058 227.967C298.283 213.603 290.641 196.399 293.668 175.795C297.624 148.87 317.347 128.842 345.102 123.504C368.363 119.031 389.383 124.317 407.25 141.108ZM321.036 199.818C320.155 200.834 319.274 201.85 318.393 202.866C318.589 203.101 318.785 203.337 318.981 203.573C328.815 198.231 338.65 192.89 349.327 187.09C354.909 192.99 360.58 198.984 366.47 205.21C377.962 192.477 389.05 180.193 400.138 167.91C399.828 167.571 399.519 167.232 399.209 166.893C389.401 173.008 379.593 179.123 368.777 185.866C363.209 180.205 357.678 174.581 351.952 168.759C341.939 178.824 331.738 189.08 321.036 199.818Z" fill="#F4DFE0"/>
<path d="M141.124 242.295C141.123 232.308 140.994 222.81 141.177 213.318C141.263 208.885 139.672 206.876 135.084 207.004C128.259 207.194 121.422 207.174 114.596 207.01C110.321 206.907 108.603 208.682 108.654 212.95C108.788 224.11 108.581 235.274 108.755 246.433C108.813 250.138 107.57 251.393 103.845 251.299C95.0216 251.076 86.1883 251.261 77.3591 251.217C70.3749 251.182 68.767 249.602 68.7539 242.716C68.7219 225.89 68.6563 209.063 68.8075 192.239C68.8419 188.41 68.1004 186.641 63.6923 186.397C61.052 186.251 57.3683 184.274 56.3583 182.096C55.593 180.447 57.6891 176.523 59.5765 174.736C78.5587 156.757 97.7527 139.002 116.906 121.205C123.453 115.121 126.977 114.938 133.61 121.145C153.067 139.353 172.399 157.695 191.708 176.059C196.02 180.16 194.578 184.734 188.571 186.358C186.352 186.958 184.022 187.144 181.104 187.624C181.104 189.468 181.104 191.255 181.104 193.042C181.104 209.368 181.114 225.694 181.1 242.02C181.093 249.83 179.677 251.206 171.662 251.224C163.5 251.242 155.324 250.955 147.178 251.333C142.41 251.554 140.317 250.162 141.105 245.282C141.236 244.47 141.124 243.619 141.124 242.295Z" fill="#0E294D"/>
<path d="M1128.72 212.78C1134.6 224.341 1133.37 236.451 1133.22 248.383C1133.21 249.4 1131.33 250.545 1130.12 251.331C1129.53 251.713 1128.5 251.404 1127.67 251.404C1086.38 251.405 1045.1 251.339 1003.81 251.497C999.231 251.515 997.477 250.26 997.852 245.574C998.448 238.132 997.779 230.497 999.145 223.226C1002.98 202.807 1021.18 187.082 1041.94 186.297C1057.57 185.706 1073.26 185.613 1088.87 186.295C1107 187.087 1120.04 196.57 1128.72 212.78Z" fill="#F4DFE0"/>
<path d="M754.897 164.266C758.409 162.89 761.611 160.886 764.872 160.786C777.357 160.402 789.862 160.589 802.358 160.667C804.489 160.68 806.617 161.205 809.417 161.585C809.535 160.015 809.744 158.469 809.752 156.922C809.79 149.757 809.688 142.59 809.795 135.427C809.914 127.468 814.481 122.334 822.351 122.159C835.508 121.867 848.681 121.866 861.837 122.172C869.33 122.346 874.098 127.597 874.172 135.176C874.309 149.005 874.218 162.836 874.221 176.666C874.222 178.433 874.221 180.2 874.221 181.182C889.589 181.182 904.344 181.078 919.095 181.221C927.722 181.304 932.774 186.431 932.818 195.023C932.911 213.019 932.781 231.015 932.902 249.011C932.927 252.643 931.513 254.284 927.981 254.289C926.649 254.291 925.316 254.344 923.984 254.344C869.162 254.347 814.341 254.349 759.52 254.345C751.151 254.345 750.935 254.117 750.933 245.572C750.93 222.577 750.756 199.58 751.098 176.59C751.158 172.547 753.387 168.537 754.897 164.266ZM868.234 158.861C868.233 151.696 868.269 144.532 868.223 137.368C868.179 130.444 866.152 128.429 859.368 128.425C847.872 128.42 836.375 128.419 824.878 128.425C817.527 128.429 815.901 130.077 815.899 137.575C815.892 167.566 815.897 197.557 815.897 227.548C815.897 229.135 815.897 230.723 815.897 232.116C833.715 232.116 850.791 232.116 868.234 232.116C868.234 207.798 868.234 183.83 868.234 158.861ZM801.432 232.476C804.043 232.476 806.653 232.476 809.656 232.476C809.656 212.316 809.767 192.712 809.573 173.111C809.528 168.567 806.42 166.441 801.877 166.455C792.053 166.484 782.229 166.464 772.405 166.464C757.252 166.465 757.252 166.464 757.252 181.651C757.252 198.427 757.252 215.203 757.252 232.476C771.908 232.476 786.178 232.476 801.432 232.476ZM874.21 221.825C874.21 225.259 874.21 228.692 874.21 232.217C892.087 232.217 909.295 232.217 926.873 232.217C926.873 219.365 926.981 206.769 926.817 194.176C926.756 189.458 924.117 187.396 918.87 187.378C906.735 187.337 894.599 187.338 882.464 187.377C876.336 187.397 874.252 189.562 874.22 195.898C874.179 204.21 874.21 212.522 874.21 221.825ZM878.653 238.921C873.553 239.273 873.094 240.344 875.035 247.772C892.139 247.772 909.313 247.772 926.628 247.772C926.628 244.754 926.628 242.029 926.628 238.922C910.778 238.922 895.202 238.922 878.653 238.921ZM790.499 248.063C795.157 248.063 799.846 247.731 804.465 248.157C809.091 248.585 810.492 246.739 809.811 242.518C809.635 241.425 809.486 240.327 809.337 239.319C791.816 239.319 774.63 239.319 757.472 239.319C757.472 242.314 757.472 244.904 757.472 248.063C768.304 248.063 778.902 248.063 790.499 248.063ZM868.156 246.498C868.156 244.083 868.156 241.668 868.156 239.103C850.462 239.103 833.423 239.103 816.282 239.103C816.282 242.134 816.282 244.983 816.282 248.035C833.113 248.035 849.535 248.043 865.957 248.006C866.566 248.005 867.174 247.579 868.156 246.498Z" fill="#F4DFE0"/>
<path d="M1092.08 161.306C1084 173.575 1072.38 178.737 1059.49 176.039C1047.08 173.443 1037.95 163.945 1035.8 151.411C1033.63 138.734 1039.23 126.576 1050.29 119.966C1060.89 113.631 1075.09 114.731 1084.84 122.641C1094.64 130.584 1098.45 143.759 1094.41 155.953C1093.83 157.676 1092.98 159.305 1092.08 161.306Z" fill="#F4DFE0"/>
<path d="M517.149 66.5994C527.634 29.4118 551.4 6.37387 589.258 0.959454C639.964 -6.2926 678.753 28.573 686.073 71.5338C693.479 114.997 668.259 150.195 636.892 164.687C581.827 190.127 516.702 149.982 515.457 89.3617C515.304 81.924 516.488 74.4589 517.149 66.5994ZM608.837 138.305C609.125 136.011 609.643 133.718 609.662 131.422C609.751 120.597 609.825 109.77 609.633 98.9481C609.571 95.4413 610.71 94.3238 614.193 94.3783C625.348 94.5528 636.508 94.4704 647.666 94.4309C654.183 94.4078 657.984 91.3863 658.101 86.2798C658.219 81.1371 654.501 77.9491 647.985 77.8993C636.994 77.8153 625.998 77.7103 615.012 77.9521C610.96 78.0413 609.501 76.9764 609.605 72.697C609.885 61.2128 609.811 49.7153 609.633 38.2269C609.546 32.6212 605.824 29.1153 600.93 29.3849C596.201 29.6453 593.123 33.159 593.103 38.5122C593.062 49.6702 593.091 60.8283 593.091 71.9864C593.091 73.7594 593.091 75.5323 593.091 77.8689C590.622 77.8689 588.832 77.8687 587.042 77.8689C576.217 77.8703 565.392 77.8004 554.567 77.9006C548.34 77.9583 544.546 81.1101 544.502 85.902C544.455 91.027 548.376 94.3972 554.647 94.4269C565.971 94.4807 577.298 94.5521 588.62 94.3784C592.139 94.3244 593.21 95.5335 593.157 98.9949C592.982 110.483 593.168 121.977 593.052 133.467C593.008 137.786 594.56 141.019 598.584 142.586C602.755 144.211 606.033 142.613 608.837 138.305Z" fill="#990623"/>
<path d="M321.286 199.577C331.738 189.08 341.939 178.824 351.952 168.759C357.678 174.581 363.209 180.205 368.777 185.866C379.593 179.123 389.401 173.008 399.209 166.893C399.519 167.232 399.828 167.571 400.138 167.91C389.05 180.193 377.962 192.477 366.47 205.21C360.58 198.984 354.909 192.99 349.327 187.09C338.65 192.89 328.815 198.231 318.981 203.573C318.785 203.337 318.589 203.101 318.393 202.866C319.274 201.85 320.155 200.834 321.286 199.577Z" fill="#9B0A28"/>
<path d="M868.234 159.361C868.234 183.83 868.234 207.798 868.234 232.116C850.791 232.116 833.715 232.116 815.897 232.116C815.897 230.723 815.897 229.135 815.897 227.548C815.897 197.557 815.892 167.566 815.899 137.575C815.901 130.077 817.527 128.429 824.878 128.425C836.375 128.419 847.871 128.42 859.368 128.425C866.152 128.429 868.179 130.444 868.223 137.368C868.269 144.532 868.233 151.696 868.234 159.361ZM845.026 141.229C844.993 138.42 845.393 134.945 840.926 136.051C838.258 136.711 835.691 138.168 833.39 139.727C832.473 140.349 831.772 142.429 832.125 143.444C832.438 144.343 834.304 144.975 835.572 145.178C836.526 145.33 837.619 144.617 838.988 144.182C838.988 148.077 838.674 151.589 839.135 154.997C839.335 156.468 841.139 157.722 842.215 159.074C843.15 157.74 844.775 156.463 844.892 155.061C845.249 150.784 845.025 146.458 845.026 141.229Z" fill="#980523"/>
<path d="M800.94 232.476C786.178 232.476 771.908 232.476 757.252 232.476C757.252 215.203 757.252 198.427 757.252 181.651C757.252 166.464 757.252 166.465 772.405 166.464C782.229 166.464 792.053 166.484 801.877 166.455C806.42 166.441 809.528 168.567 809.573 173.111C809.767 192.712 809.656 212.316 809.656 232.476C806.653 232.476 804.043 232.476 800.94 232.476ZM777.73 183.355C775.835 184.222 772.626 184.757 772.304 186.024C771.513 189.138 771.817 192.618 772.205 195.888C772.315 196.817 774.183 198.15 775.323 198.234C779.286 198.523 783.304 198.571 787.254 198.205C788.413 198.097 789.417 196.312 790.492 195.295C789.359 194.32 788.346 192.766 787.065 192.497C784.837 192.03 782.423 192.529 780.13 192.259C779.293 192.16 778.577 191.025 777.806 190.362C781.278 189.36 784.138 189.701 786.852 189.219C788.248 188.971 790.184 187.46 790.51 186.173C792.857 176.911 790.638 174.17 781.28 174.173C779.288 174.174 777.203 173.84 775.337 174.33C774.069 174.662 773.109 176.163 772.011 177.142C773.103 178.154 774.058 179.436 775.334 180.088C776.26 180.562 777.639 180.049 778.768 180.249C780.675 180.589 782.545 181.145 784.43 181.609C782.511 182.191 780.592 182.773 777.73 183.355Z" fill="#9A0826"/>
<path d="M874.21 221.329C874.21 212.522 874.178 204.21 874.22 195.898C874.252 189.562 876.336 187.397 882.464 187.377C894.599 187.338 906.735 187.337 918.87 187.378C924.117 187.396 926.756 189.458 926.817 194.176C926.98 206.769 926.873 219.365 926.873 232.217C909.295 232.217 892.087 232.217 874.21 232.217C874.21 228.692 874.21 225.259 874.21 221.329ZM904.396 199.945C902.474 200.556 900.467 200.985 898.655 201.832C896.946 202.632 895.444 203.872 893.85 204.919C895.459 205.927 896.958 207.26 898.707 207.854C900.546 208.479 902.626 208.398 904.6 208.625C904.535 209.257 904.471 209.889 904.407 210.522C901.961 210.522 899.485 210.3 897.082 210.621C895.983 210.768 894.645 211.783 894.128 212.776C893.729 213.541 894.407 215.823 894.666 215.832C899.682 216.018 904.71 216.03 909.727 215.851C910.122 215.837 910.757 214.168 910.774 213.258C910.875 207.928 911.032 202.582 910.683 197.273C910.593 195.918 908.866 193.73 907.666 193.566C904.07 193.074 900.342 193.184 896.711 193.531C895.687 193.629 894.819 195.35 893.879 196.326C894.938 197.34 895.853 198.93 897.088 199.238C899.134 199.747 901.386 199.431 904.396 199.945Z" fill="#9A0826"/>
<path d="M879.139 238.921C895.202 238.922 910.778 238.922 926.628 238.922C926.628 242.029 926.628 244.754 926.628 247.772C909.313 247.772 892.139 247.772 875.035 247.772C873.094 240.344 873.553 239.273 879.139 238.921Z" fill="#9D102D"/>
<path d="M789.999 248.063C778.902 248.063 768.304 248.063 757.472 248.063C757.472 244.904 757.472 242.314 757.472 239.319C774.63 239.319 791.816 239.319 809.337 239.319C809.486 240.327 809.635 241.425 809.811 242.518C810.492 246.739 809.091 248.585 804.465 248.157C799.846 247.731 795.157 248.063 789.999 248.063Z" fill="#9D112D"/>
<path d="M867.969 246.924C867.174 247.579 866.566 248.005 865.957 248.006C849.535 248.043 833.113 248.035 816.282 248.035C816.282 244.983 816.282 242.134 816.282 239.103C833.423 239.103 850.462 239.103 868.156 239.103C868.156 241.668 868.156 244.083 867.969 246.924Z" fill="#9C0E2B"/>
<path d="M608.631 138.643C606.033 142.613 602.755 144.211 598.584 142.586C594.56 141.019 593.008 137.786 593.052 133.467C593.168 121.977 592.982 110.483 593.157 98.9949C593.21 95.5336 592.139 94.3244 588.62 94.3784C577.298 94.5521 565.971 94.4807 554.647 94.4269C548.376 94.3972 544.455 91.027 544.502 85.902C544.546 81.1101 548.34 77.9583 554.567 77.9007C565.392 77.8004 576.217 77.8703 587.042 77.8689C588.832 77.8687 590.622 77.8689 593.091 77.8689C593.091 75.5323 593.091 73.7594 593.091 71.9864C593.091 60.8284 593.062 49.6702 593.103 38.5122C593.123 33.159 596.201 29.6453 600.93 29.3849C605.824 29.1154 609.546 32.6212 609.633 38.2269C609.811 49.7153 609.885 61.2128 609.605 72.697C609.501 76.9765 610.96 78.0413 615.012 77.9521C625.998 77.7103 636.994 77.8153 647.985 77.8993C654.501 77.9491 658.219 81.1371 658.101 86.2798C657.984 91.3863 654.183 94.4078 647.666 94.4309C636.508 94.4704 625.348 94.5528 614.193 94.3783C610.71 94.3238 609.571 95.4413 609.633 98.9481C609.825 109.77 609.751 120.597 609.662 131.422C609.643 133.718 609.125 136.011 608.631 138.643Z" fill="#F4DFE0"/>
<path d="M845.026 141.69C845.025 146.458 845.249 150.784 844.892 155.061C844.775 156.463 843.15 157.74 842.215 159.074C841.139 157.722 839.335 156.468 839.135 154.997C838.674 151.589 838.989 148.077 838.989 144.182C837.619 144.617 836.526 145.33 835.572 145.178C834.304 144.975 832.438 144.343 832.125 143.444C831.772 142.429 832.473 140.349 833.39 139.727C835.691 138.168 838.258 136.711 840.926 136.051C845.393 134.945 844.993 138.42 845.026 141.69Z" fill="#F4DFE0"/>
<path d="M778.201 183.355C780.592 182.773 782.511 182.191 784.43 181.609C782.545 181.145 780.675 180.589 778.768 180.249C777.639 180.049 776.26 180.562 775.334 180.088C774.058 179.436 773.103 178.154 772.011 177.142C773.109 176.163 774.069 174.662 775.337 174.33C777.203 173.84 779.288 174.174 781.28 174.173C790.638 174.17 792.857 176.911 790.51 186.173C790.184 187.46 788.248 188.971 786.852 189.219C784.138 189.701 781.278 189.36 777.806 190.362C778.577 191.025 779.293 192.16 780.13 192.259C782.423 192.529 784.837 192.03 787.065 192.497C788.346 192.766 789.359 194.32 790.492 195.295C789.417 196.312 788.413 198.097 787.254 198.205C783.304 198.571 779.286 198.523 775.323 198.234C774.183 198.15 772.315 196.817 772.205 195.888C771.817 192.618 771.513 189.138 772.304 186.024C772.626 184.757 775.835 184.222 778.201 183.355Z" fill="#F4DFE0"/>
<path d="M903.974 199.703C901.386 199.431 899.134 199.747 897.088 199.238C895.853 198.93 894.938 197.34 893.879 196.326C894.819 195.35 895.687 193.629 896.711 193.531C900.342 193.184 904.07 193.074 907.666 193.566C908.866 193.73 910.593 195.918 910.683 197.273C911.032 202.582 910.875 207.928 910.774 213.258C910.757 214.168 910.122 215.837 909.727 215.851C904.71 216.03 899.682 216.018 894.666 215.832C894.407 215.823 893.729 213.541 894.128 212.776C894.645 211.783 895.983 210.768 897.082 210.621C899.485 210.3 901.961 210.522 904.407 210.522C904.471 209.889 904.536 209.257 904.6 208.625C902.626 208.398 900.546 208.479 898.707 207.854C896.958 207.26 895.459 205.927 893.85 204.919C895.444 203.872 896.946 202.632 898.655 201.832C900.467 200.985 902.474 200.556 903.974 199.703Z" fill="#F4DFE0"/>
</svg>
