<svg width="200" height="190" viewBox="0 0 200 190" fill="none" xmlns="http://www.w3.org/2000/svg">
<path d="M110.025 164.687C81.5132 172.243 55.5889 167.973 32.1068 150.337C-7.40363 120.663 -11.0965 59.0249 24.6347 24.7325C57.9675 -7.25832 108.723 -8.34326 141.854 22.2268C172.907 50.8788 178.286 96.1287 154.826 131.343C154.366 132.033 153.917 132.729 153.448 133.446C159.657 139.772 165.784 146.108 172.016 152.34C179.676 160 187.453 167.542 195.121 175.193C199.825 179.888 200.302 184.223 196.686 187.832C193.413 191.1 188.789 190.53 184.416 186.202C171.861 173.776 159.339 161.315 146.796 148.875C145.629 147.717 144.412 146.609 143.015 145.286C133.387 154.111 122.488 160.357 110.025 164.687ZM59.1651 20.044C12.7419 39.5376 0.235912 95.9386 34.3926 131.766C54.8285 153.202 86.1358 159.193 113.428 146.885C138.682 135.497 156.477 108.502 153.636 77.7234C149.486 32.7523 102.099 3.33547 59.1651 20.044Z" fill="#FDFBFB"/>
</svg>
