<svg width="166" height="185" viewBox="0 0 166 185" fill="none" xmlns="http://www.w3.org/2000/svg">
<path d="M1.2552 148.564C8.37333 142.46 15.3715 136.797 22.0283 130.757C23.5947 129.336 24.7955 126.658 24.8305 124.537C25.1216 106.877 24.2993 89.1633 25.3671 71.5602C26.842 47.2442 39.7787 30.3753 62.1751 20.8029C64.2464 19.9176 66.1945 19.6405 66.2956 16.2917C66.5772 6.96737 73.3036 0.304462 81.9041 0.0112871C90.8014 -0.292 97.884 5.53839 98.7721 14.8913C99.1451 18.8201 100.883 19.9028 104.03 21.297C125.488 30.8019 138.131 47.3715 139.83 70.7382C141.108 88.3146 140.352 106.048 140.224 123.71C140.198 127.269 141.323 129.506 144.017 131.659C150.131 136.543 155.876 141.892 162.024 146.73C165.565 149.515 165.648 152.957 164.753 156.587C163.772 160.566 160.248 159.817 157.316 159.818C107.82 159.831 58.3245 159.828 8.82859 159.827C0.099865 159.827 -1.55611 157.503 1.2552 148.564ZM75.2572 17.23C80.3729 17.23 85.4886 17.23 90.6362 17.23C89.6748 10.9424 87.2496 8.46882 82.3704 8.60351C77.4719 8.73874 75.3022 11.0527 75.2572 17.23Z" fill="#FEFEFE"/>
<path d="M61.857 170.64C63.0862 169.558 64.3505 168.234 65.6391 168.21C76.9146 167.999 88.1945 167.978 99.473 167.996C103.808 168.003 104.472 169.152 102.302 173.097C97.9135 181.076 90.9662 185.202 81.955 184.87C72.553 184.523 65.76 179.712 61.857 170.64Z" fill="#FDF9FA"/>
</svg>
